<svg id="图层_1" data-name="图层 1" xmlns="http://www.w3.org/2000/svg" xmlns:xlink="http://www.w3.org/1999/xlink" viewBox="0 0 1622.29 1001.45"><defs><style>.cls-1{fill:#e6f5ff;}.cls-2{fill:#e1f3ff;}.cls-3{fill:#3f6832;}.cls-10,.cls-11,.cls-12,.cls-3,.cls-5,.cls-6,.cls-8{fill-rule:evenodd;}.cls-4,.cls-6{fill:#c1c296;}.cls-5,.cls-7{fill:#f7f4ca;}.cls-8{fill:#f4c41c;}.cls-10,.cls-9{fill:#b39131;}.cls-11{fill:#bb2726;}.cls-12{fill:#78241c;}.cls-13{fill:#fff;}.cls-14{opacity:0.07;}.cls-15{fill:#706f6f;}.cls-16{fill:#73493f;}.cls-17{fill:#4f322c;}.cls-18{opacity:0.2;}.cls-19{fill:#ba1f00;}.cls-20{opacity:0.37;}.cls-21{fill:#3c3c3b;}.cls-22{fill:#6b370d;}.cls-23{fill:#644139;}.cls-24{fill:#a1c154;}.cls-25{fill:#009844;}.cls-26{fill:#99a851;}.cls-27{fill:#abfffb;}.cls-28{fill:#573f39;}.cls-29{fill:#99765d;}.cls-30{fill:#377749;}.cls-31{fill:#8db537;}.cls-32{fill:#359625;}.cls-33{fill:#a8db43;}.cls-34{fill:#674d31;}.cls-35{fill:#ae6f3b;}.cls-36{fill:#ea820b;}.cls-37{fill:url(#linear-gradient);}.cls-38{fill:#3b301b;}.cls-39{fill:#634e42;}.cls-40{fill:url(#linear-gradient-2);}.cls-41{fill:url(#linear-gradient-3);}.cls-42{fill:url(#linear-gradient-4);}.cls-43{fill:url(#linear-gradient-5);}.cls-44{fill:#c77c3d;}.cls-45{fill:#ff3615;}</style><linearGradient id="linear-gradient" x1="1580.86" y1="636.59" x2="1624.63" y2="636.59" gradientUnits="userSpaceOnUse"><stop offset="0.07" stop-color="#ffcd2e"/><stop offset="0.84" stop-color="#ffb52e"/></linearGradient><linearGradient id="linear-gradient-2" x1="1540.85" y1="662.57" x2="1573.3" y2="662.57" xlink:href="#linear-gradient"/><linearGradient id="linear-gradient-3" x1="1480.46" y1="637.65" x2="1523.75" y2="637.65" xlink:href="#linear-gradient"/><linearGradient id="linear-gradient-4" x1="226.98" y1="627.65" x2="272.65" y2="627.65" xlink:href="#linear-gradient"/><linearGradient id="linear-gradient-5" x1="345.62" y1="645.02" x2="384.56" y2="645.02" xlink:href="#linear-gradient"/></defs><title>夏天</title><path class="cls-1" d="M1464.19,319.65c0-19.38-18.4-35.09-41.1-35.09S1382,300.27,1382,319.65a30.48,30.48,0,0,0,2.58,12.26h77A30.48,30.48,0,0,0,1464.19,319.65Z" transform="translate(-135.55 -148.55)"/><path class="cls-1" d="M1461.38,332.37c.07-.15.16-.3.23-.46h-77c.08.18.18.35.26.53Q1423.12,332.29,1461.38,332.37Z" transform="translate(-135.55 -148.55)"/><ellipse class="cls-1" cx="1334.03" cy="136" rx="41.1" ry="35.09"/><path class="cls-1" d="M1505.29,319.65c0-19.38-18.4-35.09-41.1-35.09s-41.1,15.71-41.1,35.09a30.49,30.49,0,0,0,2.59,12.26h77A30.49,30.49,0,0,0,1505.29,319.65Z" transform="translate(-135.55 -148.55)"/><path class="cls-1" d="M1502.42,332.5c.09-.2.2-.39.28-.59h-77c.06.15.14.29.21.43Q1464.16,332.33,1502.42,332.5Z" transform="translate(-135.55 -148.55)"/><path class="cls-1" d="M1546.38,319.65c0-19.38-18.4-35.09-41.09-35.09s-41.1,15.71-41.1,35.09a30.65,30.65,0,0,0,2.58,12.26h77A30.48,30.48,0,0,0,1546.38,319.65Z" transform="translate(-135.55 -148.55)"/><path class="cls-1" d="M1543.8,331.91h-77c.07.16.16.31.24.48q38.21.08,76.41.31C1543.54,332.43,1543.68,332.18,1543.8,331.91Z" transform="translate(-135.55 -148.55)"/><ellipse class="cls-1" cx="1410.56" cy="118.65" rx="41.1" ry="35.09"/><path class="cls-1" d="M1599.76,302.29c0-19.38-18.39-35.09-41.09-35.09s-41.1,15.71-41.1,35.09c0,12.46,7.61,23.39,19.06,29.62h44.08C1592.16,325.68,1599.76,314.75,1599.76,302.29Z" transform="translate(-135.55 -148.55)"/><path class="cls-1" d="M1580.71,331.91h-44.08c.5.27,1,.51,1.52.76l40.55.25C1579.38,332.59,1580.05,332.26,1580.71,331.91Z" transform="translate(-135.55 -148.55)"/><path class="cls-1" d="M1657.85,331.91h-77c.15.35.33.68.5,1l75.78.51C1657.36,332.93,1657.63,332.43,1657.85,331.91Z" transform="translate(-135.55 -148.55)"/><path class="cls-1" d="M1660.44,319.65c0-19.38-18.4-35.09-41.1-35.09s-41.1,15.71-41.1,35.09a30.49,30.49,0,0,0,2.59,12.26h77A30.49,30.49,0,0,0,1660.44,319.65Z" transform="translate(-135.55 -148.55)"/><path class="cls-1" d="M1617.53,302.29c0-19.38-18.4-35.09-41.09-35.09s-41.1,15.71-41.1,35.09c0,12.46,7.61,23.39,19.06,29.62h44.07C1609.93,325.68,1617.53,314.75,1617.53,302.29Z" transform="translate(-135.55 -148.55)"/><path class="cls-1" d="M1598.47,331.91H1554.4c.56.3,1.14.58,1.72.87l40.12.25C1597,332.67,1597.75,332.3,1598.47,331.91Z" transform="translate(-135.55 -148.55)"/><path class="cls-1" d="M1564.83,302.29c-20.51,0-37.51,12.84-40.59,29.62h81.19C1602.35,315.13,1585.35,302.29,1564.83,302.29Z" transform="translate(-135.55 -148.55)"/><path class="cls-1" d="M983.41,305.54c0-24.06-22.84-43.56-51-43.56s-51,19.5-51,43.56a38,38,0,0,0,3.2,15.21h95.61A38,38,0,0,0,983.41,305.54Z" transform="translate(-135.55 -148.55)"/><path class="cls-1" d="M979.93,321.33c.08-.2.19-.38.28-.58H884.6c.1.23.22.44.33.67Q932.42,321.23,979.93,321.33Z" transform="translate(-135.55 -148.55)"/><ellipse class="cls-1" cx="854.55" cy="113.43" rx="51.01" ry="43.56"/><path class="cls-1" d="M1034.42,305.54c0-24.06-22.84-43.56-51-43.56s-51,19.5-51,43.56a37.81,37.81,0,0,0,3.21,15.21h95.6A37.81,37.81,0,0,0,1034.42,305.54Z" transform="translate(-135.55 -148.55)"/><path class="cls-1" d="M1030.85,321.49c.12-.25.25-.49.36-.74h-95.6c.08.19.18.36.26.54Q983.36,321.27,1030.85,321.49Z" transform="translate(-135.55 -148.55)"/><path class="cls-1" d="M1085.42,305.54c0-24.06-22.83-43.56-51-43.56s-51,19.5-51,43.56a38,38,0,0,0,3.2,15.21h95.61A38,38,0,0,0,1085.42,305.54Z" transform="translate(-135.55 -148.55)"/><path class="cls-1" d="M1082.22,320.75H986.61c.09.2.2.39.29.59q47.43.12,94.84.39C1081.89,321.4,1082.07,321.09,1082.22,320.75Z" transform="translate(-135.55 -148.55)"/><ellipse class="cls-1" cx="949.53" cy="91.89" rx="51.01" ry="43.56"/><path class="cls-1" d="M1151.68,284c0-24.06-22.84-43.56-51-43.56s-51,19.5-51,43.56c0,15.45,9.44,29,23.66,36.75H1128C1142.24,313,1151.68,299.45,1151.68,284Z" transform="translate(-135.55 -148.55)"/><path class="cls-1" d="M1128,320.75h-54.7c.61.34,1.25.64,1.88.95l50.34.3C1126.38,321.6,1127.21,321.19,1128,320.75Z" transform="translate(-135.55 -148.55)"/><path class="cls-1" d="M1223.77,320.75h-95.6c.19.43.42.85.62,1.27l94,.63C1223.16,322,1223.49,321.4,1223.77,320.75Z" transform="translate(-135.55 -148.55)"/><path class="cls-1" d="M1227,305.54c0-24.06-22.84-43.56-51-43.56s-51,19.5-51,43.56a37.81,37.81,0,0,0,3.21,15.21h95.6A37.81,37.81,0,0,0,1227,305.54Z" transform="translate(-135.55 -148.55)"/><path class="cls-1" d="M1173.73,284c0-24.06-22.84-43.56-51-43.56s-51,19.5-51,43.56c0,15.45,9.43,29,23.65,36.75h54.7C1164.29,313,1173.73,299.45,1173.73,284Z" transform="translate(-135.55 -148.55)"/><path class="cls-1" d="M1150.07,320.75h-54.7c.7.38,1.42.73,2.14,1.08q24.9.15,49.79.32C1148.24,321.7,1149.17,321.24,1150.07,320.75Z" transform="translate(-135.55 -148.55)"/><path class="cls-1" d="M1108.32,284c-25.46,0-46.56,15.93-50.38,36.75H1158.7C1154.88,299.93,1133.78,284,1108.32,284Z" transform="translate(-135.55 -148.55)"/><path class="cls-1" d="M237.92,443.5c0-21-16.46-37.95-36.76-37.95s-36.75,17-36.75,37.95a38.68,38.68,0,0,0,2.31,13.25h68.89A38.92,38.92,0,0,0,237.92,443.5Z" transform="translate(-135.55 -148.55)"/><path class="cls-1" d="M235.41,457.25c.06-.16.14-.33.2-.5H166.72c.07.2.15.39.23.58Q201.18,457.17,235.41,457.25Z" transform="translate(-135.55 -148.55)"/><ellipse class="cls-1" cx="107.19" cy="257" rx="36.76" ry="37.95"/><path class="cls-1" d="M274.68,443.5c0-21-16.46-37.95-36.76-37.95s-36.76,17-36.76,37.95a38.92,38.92,0,0,0,2.31,13.25h68.9A38.92,38.92,0,0,0,274.68,443.5Z" transform="translate(-135.55 -148.55)"/><path class="cls-1" d="M272.11,457.39c.08-.21.18-.42.26-.64h-68.9c.06.16.13.32.19.47Q237.89,457.2,272.11,457.39Z" transform="translate(-135.55 -148.55)"/><path class="cls-1" d="M311.43,443.5c0-21-16.45-37.95-36.75-37.95s-36.76,17-36.76,37.95a38.92,38.92,0,0,0,2.31,13.25h68.89A38.92,38.92,0,0,0,311.43,443.5Z" transform="translate(-135.55 -148.55)"/><path class="cls-1" d="M309.12,456.75H240.23c.06.18.14.35.21.52q34.17.09,68.34.34C308.89,457.32,309,457,309.12,456.75Z" transform="translate(-135.55 -148.55)"/><ellipse class="cls-1" cx="175.64" cy="238.23" rx="36.76" ry="37.95"/><path class="cls-1" d="M359.18,424.73c0-21-16.46-38-36.76-38s-36.75,17-36.75,38a38.2,38.2,0,0,0,17,32h39.42A38.18,38.18,0,0,0,359.18,424.73Z" transform="translate(-135.55 -148.55)"/><path class="cls-1" d="M342.13,456.75H302.71c.44.29.9.56,1.36.83l36.27.26C341,457.49,341.55,457.14,342.13,456.75Z" transform="translate(-135.55 -148.55)"/><path class="cls-1" d="M411.14,456.75h-68.9c.14.38.3.74.45,1.11l67.78.55C410.7,457.86,410.93,457.32,411.14,456.75Z" transform="translate(-135.55 -148.55)"/><path class="cls-1" d="M413.44,443.5c0-21-16.45-37.95-36.75-37.95s-36.76,17-36.76,37.95a38.92,38.92,0,0,0,2.31,13.25h68.9A38.92,38.92,0,0,0,413.44,443.5Z" transform="translate(-135.55 -148.55)"/><path class="cls-1" d="M375.07,424.73c0-21-16.46-38-36.76-38s-36.75,17-36.75,38a38.2,38.2,0,0,0,17,32H358A38.18,38.18,0,0,0,375.07,424.73Z" transform="translate(-135.55 -148.55)"/><path class="cls-1" d="M358,456.75H318.6c.51.33,1,.64,1.54.94L356,458C356.71,457.58,357.37,457.18,358,456.75Z" transform="translate(-135.55 -148.55)"/><path class="cls-1" d="M327.94,424.73c-18.35,0-33.56,13.88-36.31,32h72.61C361.49,438.61,346.28,424.73,327.94,424.73Z" transform="translate(-135.55 -148.55)"/><path class="cls-2" d="M796.13,204.39c0-12.36-11.74-22.38-26.21-22.38s-26.21,10-26.21,22.38a19.53,19.53,0,0,0,1.64,7.82h49.13A19.54,19.54,0,0,0,796.13,204.39Z" transform="translate(-135.55 -148.55)"/><path class="cls-2" d="M794.34,212.5c0-.1.1-.19.14-.29H745.35c0,.11.12.22.17.34Q769.93,212.45,794.34,212.5Z" transform="translate(-135.55 -148.55)"/><ellipse class="cls-2" cx="664.01" cy="33.45" rx="26.21" ry="22.38"/><path class="cls-2" d="M822.34,204.39C822.34,192,810.6,182,796.13,182s-26.21,10-26.21,22.38a19.53,19.53,0,0,0,1.64,7.82h49.13A19.54,19.54,0,0,0,822.34,204.39Z" transform="translate(-135.55 -148.55)"/><path class="cls-2" d="M820.5,212.58l.19-.37H771.56c0,.09.1.18.14.27Q796.11,212.47,820.5,212.58Z" transform="translate(-135.55 -148.55)"/><path class="cls-2" d="M848.55,204.39c0-12.36-11.74-22.38-26.21-22.38s-26.21,10-26.21,22.38a19.53,19.53,0,0,0,1.64,7.82H846.9A19.54,19.54,0,0,0,848.55,204.39Z" transform="translate(-135.55 -148.55)"/><path class="cls-2" d="M846.9,212.21H797.77l.15.3q24.36.06,48.73.2C846.73,212.54,846.82,212.38,846.9,212.21Z" transform="translate(-135.55 -148.55)"/><ellipse class="cls-2" cx="712.82" cy="22.38" rx="26.21" ry="22.38"/><path class="cls-2" d="M882.59,193.32c0-12.36-11.73-22.38-26.21-22.38s-26.21,10-26.21,22.38c0,7.94,4.85,14.91,12.16,18.89h28.11C877.74,208.23,882.59,201.26,882.59,193.32Z" transform="translate(-135.55 -148.55)"/><path class="cls-2" d="M870.44,212.21H842.33c.31.17.64.32,1,.48l25.87.16Z" transform="translate(-135.55 -148.55)"/><path class="cls-2" d="M919.64,212.21H870.51c.1.22.22.43.32.65l48.33.32C919.32,212.86,919.49,212.54,919.64,212.21Z" transform="translate(-135.55 -148.55)"/><path class="cls-2" d="M921.28,204.39c0-12.36-11.73-22.38-26.21-22.38s-26.2,10-26.2,22.38a19.53,19.53,0,0,0,1.64,7.82h49.13A19.53,19.53,0,0,0,921.28,204.39Z" transform="translate(-135.55 -148.55)"/><path class="cls-2" d="M893.92,193.32c0-12.36-11.73-22.38-26.21-22.38s-26.21,10-26.21,22.38c0,7.94,4.85,14.91,12.16,18.89h28.11C889.07,208.23,893.92,201.26,893.92,193.32Z" transform="translate(-135.55 -148.55)"/><path class="cls-2" d="M881.77,212.21H853.66l1.1.55,25.58.16C880.83,212.69,881.3,212.46,881.77,212.21Z" transform="translate(-135.55 -148.55)"/><path class="cls-2" d="M860.31,193.32c-13.08,0-23.92,8.18-25.89,18.89H886.2C884.24,201.5,873.4,193.32,860.31,193.32Z" transform="translate(-135.55 -148.55)"/><path class="cls-2" d="M531.54,294.59c0-18-17.14-32.68-38.27-32.68S455,276.54,455,294.59A28.42,28.42,0,0,0,457.4,306h71.73A28.26,28.26,0,0,0,531.54,294.59Z" transform="translate(-135.55 -148.55)"/><path class="cls-2" d="M528.92,306.43c.07-.14.15-.28.21-.43H457.4c.08.17.17.33.25.5Q493.29,306.35,528.92,306.43Z" transform="translate(-135.55 -148.55)"/><ellipse class="cls-2" cx="401.01" cy="113.35" rx="38.27" ry="32.68"/><path class="cls-2" d="M569.81,294.59c0-18-17.14-32.68-38.27-32.68s-38.27,14.63-38.27,32.68a28.42,28.42,0,0,0,2.4,11.41H567.4A28.43,28.43,0,0,0,569.81,294.59Z" transform="translate(-135.55 -148.55)"/><path class="cls-2" d="M567.13,306.55c.09-.19.19-.36.27-.55H495.67c.06.14.14.27.2.41Q531.51,306.38,567.13,306.55Z" transform="translate(-135.55 -148.55)"/><path class="cls-2" d="M608.08,294.59c0-18-17.14-32.68-38.27-32.68s-38.27,14.63-38.27,32.68a28.42,28.42,0,0,0,2.4,11.41h71.73A28.43,28.43,0,0,0,608.08,294.59Z" transform="translate(-135.55 -148.55)"/><path class="cls-2" d="M605.67,306H533.94c.07.15.15.29.22.44q35.58.09,71.15.3C605.43,306.49,605.56,306.25,605.67,306Z" transform="translate(-135.55 -148.55)"/><ellipse class="cls-2" cx="472.27" cy="97.19" rx="38.27" ry="32.68"/><path class="cls-2" d="M657.79,278.42c0-18.05-17.14-32.68-38.27-32.68s-38.27,14.63-38.27,32.68c0,11.6,7.08,21.78,17.75,27.58h41C650.7,300.2,657.79,290,657.79,278.42Z" transform="translate(-135.55 -148.55)"/><path class="cls-2" d="M640,306H599c.46.25.93.48,1.41.71l37.77.23C638.8,306.64,639.43,306.33,640,306Z" transform="translate(-135.55 -148.55)"/><path class="cls-2" d="M711.88,306H640.15c.14.32.31.64.47.95l70.56.47C711.42,307,711.67,306.48,711.88,306Z" transform="translate(-135.55 -148.55)"/><path class="cls-2" d="M714.28,294.59c0-18-17.13-32.68-38.26-32.68s-38.27,14.63-38.27,32.68a28.42,28.42,0,0,0,2.4,11.41h71.73A28.42,28.42,0,0,0,714.28,294.59Z" transform="translate(-135.55 -148.55)"/><path class="cls-2" d="M674.33,278.42c0-18.05-17.13-32.68-38.27-32.68s-38.27,14.63-38.27,32.68c0,11.6,7.09,21.78,17.75,27.58h41C667.25,300.2,674.33,290,674.33,278.42Z" transform="translate(-135.55 -148.55)"/><path class="cls-2" d="M656.58,306h-41c.52.28,1.07.54,1.61.81l37.36.24C655.21,306.71,655.91,306.37,656.58,306Z" transform="translate(-135.55 -148.55)"/><path class="cls-2" d="M625.26,278.42c-19.1,0-34.94,11.95-37.8,27.58h75.6C660.19,290.37,644.36,278.42,625.26,278.42Z" transform="translate(-135.55 -148.55)"/><path class="cls-3" d="M852.27,559.9h-9.15c-.92-20.34-19.24-37.12-42.76-40.12h.11v-.49a20.22,20.22,0,0,0-7.66-15.45,28.74,28.74,0,0,0-18.43-6.42H723.45A28.74,28.74,0,0,0,705,503.85a20.22,20.22,0,0,0-7.66,15.45V716A20.2,20.2,0,0,0,705,731.41a28.74,28.74,0,0,0,18.43,6.42h50.93V725H723.45a11.86,11.86,0,0,1-7.58-2.65,8.34,8.34,0,0,1-3.16-6.36V519.3a8.31,8.31,0,0,1,3.16-6.35,11.8,11.8,0,0,1,7.58-2.65h50.93A11.8,11.8,0,0,1,782,513a8.31,8.31,0,0,1,3.16,6.35v.49L784,520c-.38,0-.75.12-1.12.18l-1.11.19h0l-1.1.21-1.09.24-1.07.26h0l-1.07.28h0l-1.06.3-1,.32h0l-1,.33h0l-1,.36h0l-1,.37-1,.39-1,.41-1,.43-1,.44-1,.46h0l-1.87,1-.91.52-.9.52c-.3.18-.6.36-.89.55l-.87.55h0c-.58.38-1.14.77-1.7,1.17l-.82.6h0c-.82.62-1.62,1.25-2.39,1.9-.51.43-1,.88-1.51,1.34l-.72.68h0l-.71.71c-.47.47-.92,1-1.36,1.43-.23.25-.44.49-.66.75s-.43.5-.64.75-.41.5-.61.76l-.6.77h0l-.58.78c-.18.27-.37.53-.56.8s-.36.53-.53.8h0c-.18.27-.35.54-.52.81h0l-.49.83c-.16.28-.32.56-.47.84l-.46.85-.43.86c-.14.29-.28.58-.41.87l-.39.87-.36.89c-.12.29-.23.59-.34.89s-.21.6-.32.91-.2.6-.29.9l-.27.92c-.09.31-.17.62-.25.93s-.15.62-.21.93-.14.63-.2,1-.12.63-.17.94-.1.64-.14,1-.09.64-.13,1l-.09,1c0,.33,0,.65-.07,1s0,.65,0,1,0,.65,0,1V712.1h87a3.32,3.32,0,0,0,.62.68,4.11,4.11,0,0,0,2.66.93h19.58a4.08,4.08,0,0,0,2.65-.93,2.86,2.86,0,0,0,1.11-2.22V563.05a2.89,2.89,0,0,0-1.11-2.23,4.13,4.13,0,0,0-2.65-.92m-65.73-40.27Zm0,0h0Zm.29,0h0Zm.07,0h0Zm.06,0h0Zm.07,0h0Zm.06,0h0Zm.05,0h0Zm0,0h0Zm.06,0h0Zm.1,0h0Zm.08,0h0Zm3-.2Zm.05,0h0Zm.3,0Zm0,0h0Zm0,0Zm.1,0h0Zm.05,0Zm.06,0Zm.05,0,0,0h0Zm0,0h0Zm61,191.18h-9v-6.39h9Zm0-9.6h-9v-5h9Zm0-8.24h-9v-5h9Zm0-8.24h-9v-5h9Zm0-8.24h-9v-5h9Zm0-8.24h-9v-5h9Zm0-8.24h-9v-5h9Zm0-8.25h-9v-5h9Zm0-8.24h-9v-5h9Zm0-8.24h-9v-5h9Zm0-8.24h-9v-5h9Zm0-8.24h-9v-5h9Zm0-8.24h-9v-5h9Zm0-8.25h-9v-5h9Zm0-8.24h-9v-5h9Zm0-8.24h-9v-5h9Zm0-8.24h-9v-5h9Zm0-8.24h-9v-5.93h9Z" transform="translate(-135.55 -148.55)"/><path class="cls-3" d="M1283.05,591.38h-20.28V420.85a3.56,3.56,0,0,0-1.1-2.57,3.83,3.83,0,0,0-2.66-1.08h-9.19c0-24.87-19.46-45.52-44.35-48.43.55.07,1.12.11,1.67.19v-.57a24.86,24.86,0,0,0-7.67-17.87A26.46,26.46,0,0,0,1181,343.1h-50.92a26.49,26.49,0,0,0-18.44,7.42,24.85,24.85,0,0,0-7.66,17.87V592.75c-.67.15-1.33.37-2,.55s-1.1.29-1.63.45c-1.17.36-2.3.78-3.43,1.22l-.91.34c-1.41.58-2.78,1.23-4.12,1.93-.4.21-.77.44-1.16.66-.94.52-1.87,1.05-2.76,1.63-.48.31-.94.63-1.41,1-.78.55-1.55,1.1-2.3,1.68-.47.37-.93.73-1.38,1.11q-1.08.9-2.1,1.86c-.42.39-.85.78-1.26,1.18-.7.7-1.36,1.43-2,2.17-.34.37-.69.74-1,1.14-.85,1-1.64,2-2.41,3.11l-.32.42c-.85,1.22-1.64,2.49-2.38,3.79-.22.39-.42.81-.63,1.21-.49.92-1,1.85-1.4,2.8-.23.5-.43,1-.64,1.54q-.55,1.32-1,2.67c-.19.56-.37,1.12-.54,1.69-.27.91-.51,1.83-.73,2.76-.14.56-.28,1.12-.39,1.69-.2,1-.35,2.05-.49,3.08-.07.5-.15,1-.2,1.5-.15,1.54-.25,3.09-.25,4.67h0v99.38h268.64V640.56c0-27-22.83-49.18-50.73-49.18m-24.12-170.45v6.85h-9v3.72h9v5.81h-9V441h9v5.81h-9v3.72h9v5.82h-9v3.72h9v5.8h-9v3.73h9v5.81h-9v3.72h9V485h-9v3.72h9v5.81h-9v3.72h9V504h-9v3.72h9v5.81h-9v3.72h9v5.82h-9v3.72h9v5.81h-9v3.72h9v5.81h-9v3.72h9v5.81h-9v3.72h9v5.81h-9v3.72h9v5.81h-9v3.72h9v5.81h-9V584h9v7.38h-9.11V420.93Zm-54.85-52.31c-1.53-.14-3.06-.23-4.62-.23,1.56,0,3.09.09,4.62.23m-4.62-.23c-1.56,0-3.1.09-4.63.23,1.53-.14,3.07-.23,4.63-.23ZM1122.53,361a10.91,10.91,0,0,1,7.59-3.06H1181a10.87,10.87,0,0,1,7.58,3.06,10.24,10.24,0,0,1,3.16,7.35V369c.56-.08,1.13-.12,1.7-.19-24.9,2.9-44.38,23.55-44.38,48.43V591.38h-29.73v-223a10.28,10.28,0,0,1,3.16-7.35" transform="translate(-135.55 -148.55)"/><path class="cls-3" d="M533.47,548.68l0,0-7.9-161.17v0c7.32-.43,13.14-4.73,13.14-10,0-5.54-6.45-10.06-14.33-10.06H444.09c-7.87,0-14.32,4.52-14.32,10.06,0,5.24,5.82,9.54,13.14,10l-1.18,24.22-.48,9.73-.79,16.19-.79,16.19-.79,16.2-.79,16.19-1,19.94-.6,12.44L435.3,543.5l-.37,7.47h0l-.16,3-55.95-38.82v0l0,0-.72-14.78h0l-.79-16.19h0L376.56,468h0l-.79-16.2h0L375,435.59h0l-.79-16.19h0l-.79-16.19h0L372.58,387h0l-.79-16.2h0l-.87-17.68c7.32-.43,13.15-4.73,13.15-10,0-5.53-6.45-10.06-14.33-10.06H289.41c-7.88,0-14.32,4.53-14.32,10.06,0,5.24,5.82,9.54,13.13,10L279.45,533h0l-69.53,49.21V737.88h0V739H601.15V582.25L533.47,548.7Z" transform="translate(-135.55 -148.55)"/><path class="cls-4" d="M472,727.24h-9v-3.72h9v-5.81h-9V714h9v-5.81h-9v-3.72h9v-5.81h-9v-3.72h9v-5.81h-9V685.4h9v-5.82h-9v-3.72h9v-5.81h-9v-3.72h9v-5.81h-9V656.8h9V651h-9v-3.72h9v-5.81h-9v-3.72h9v-5.82h-9v-3.71h9V622.4h-9v-3.72h9v-5.82h-9v-3.72h9v-5.81h-9v-3.72h9V593.8h-9v-3.72h9v-5.81h-9v-3.72h9v-5.81h-9V571h9v-6.86H452.6V734.62H472Zm-19.5-166.8H472.1a3.81,3.81,0,0,1,2.66,1.07,3.58,3.58,0,0,1,1.1,2.58v170.6a3.58,3.58,0,0,1-1.1,2.58,3.81,3.81,0,0,1-2.66,1.07H452.52a3.81,3.81,0,0,1-2.66-1.07,3.58,3.58,0,0,1-1.1-2.58V564.09a3.58,3.58,0,0,1,1.1-2.58,3.81,3.81,0,0,1,2.66-1.07" transform="translate(-135.55 -148.55)"/><path class="cls-5" d="M412.63,513.49h0c27.7,0,50.36,22,50.36,48.81V736.48H362.27V562.3c0-26.85,22.66-48.81,50.36-48.81" transform="translate(-135.55 -148.55)"/><path class="cls-6" d="M412.63,513.49v223H463V562.3c0-24.32-18.59-44.63-42.68-48.24a51.14,51.14,0,0,0-7.68-.57" transform="translate(-135.55 -148.55)"/><path class="cls-7" d="M573.13,581.89h9v-3.72h-9v-5.81h9v-3.72h-9v-5.81h9v-3.72h-9V553.3h9v-3.72h-9v-5.81h9V540h-9v-5.8h9v-3.72h-9V524.7h9V521h-9v-5.81h9v-3.73h-9v-5.81h9v-3.71h-9v-5.82h9v-3.72h-9v-5.81h9v-3.72h-9V477h9v-3.71h-9v-5.81h9V463.8h-9V458h9v-3.72h-9v-5.81h9v-3.72h-9v-5.81h9V435.2h-9v-5.81h9v-3.72h-9v-6.86h19.42V589.27H573.13Zm19.5-166.8H573.05a3.82,3.82,0,0,0-2.66,1.08,3.54,3.54,0,0,0-1.1,2.57V589.35a3.57,3.57,0,0,0,1.1,2.57,3.81,3.81,0,0,0,2.66,1.07h19.58a3.81,3.81,0,0,0,2.66-1.07,3.57,3.57,0,0,0,1.1-2.57V418.74a3.54,3.54,0,0,0-1.1-2.57,3.82,3.82,0,0,0-2.66-1.08" transform="translate(-135.55 -148.55)"/><path class="cls-8" d="M498.28,737.83H766.91V638.44c0-27-22.83-49.17-50.73-49.17H549c-27.9,0-50.73,22.13-50.73,49.17Z" transform="translate(-135.55 -148.55)"/><rect class="cls-7" x="423.7" y="475.13" width="37.33" height="36.19"/><rect class="cls-7" x="478.38" y="475.13" width="37.33" height="36.19"/><rect class="cls-4" x="533.06" y="475.13" width="37.33" height="36.19"/><rect class="cls-7" x="423.7" y="537.9" width="37.33" height="36.18"/><rect class="cls-7" x="478.38" y="537.9" width="37.33" height="36.18"/><rect class="cls-4" x="533.06" y="537.9" width="37.33" height="36.18"/><path class="cls-5" d="M632.59,366.28h0c27.7,0,50.37,22,50.37,48.81V589.27H582.24V415.09c0-26.85,22.65-48.81,50.35-48.81" transform="translate(-135.55 -148.55)"/><path class="cls-9" d="M728,590.64V366.28a24.89,24.89,0,0,0-7.66-17.87A26.51,26.51,0,0,0,701.94,341H651a26.49,26.49,0,0,0-18.44,7.42,24.89,24.89,0,0,0-7.66,17.87v.57a51.2,51.2,0,0,1,7.67-.57h0a51,51,0,0,1,7.67.57v-.57a10.22,10.22,0,0,1,3.16-7.35,10.89,10.89,0,0,1,7.59-3.06h50.92a10.91,10.91,0,0,1,7.59,3.06,10.26,10.26,0,0,1,3.16,7.35v223h3.49A51.53,51.53,0,0,1,728,590.64" transform="translate(-135.55 -148.55)"/><path class="cls-6" d="M632.59,366.28v223H683V415.09c0-24.32-18.6-44.63-42.69-48.24a52.38,52.38,0,0,0-7.68-.57" transform="translate(-135.55 -148.55)"/><path class="cls-10" d="M668.61,686.46h37.33v36.18H668.61Zm-17.35-62.77v36.19H632.59v26.58h18.67v36.18H632.59v13.84H766.91v-98c0-23.1-16.64-42.6-38.87-47.81a51.53,51.53,0,0,0-11.86-1.37H632.59v34.42Zm54.68,36.19H668.61V623.69h37.33Z" transform="translate(-135.55 -148.55)"/><rect class="cls-4" x="497.04" y="475.13" width="18.67" height="36.19"/><rect class="cls-4" x="497.04" y="537.9" width="18.67" height="36.19"/><path class="cls-7" d="M1153.33,727.24h9v-3.72h-9v-5.81h9V714h-9v-5.81h9v-3.72h-9v-5.81h9v-3.72h-9v-5.81h9V685.4h-9v-5.82h9v-3.72h-9v-5.81h9v-3.72h-9v-5.81h9V656.8h-9V651h9v-3.72h-9v-5.81h9v-3.72h-9v-5.82h9v-3.71h-9V622.4h9v-3.72h-9v-5.82h9v-3.72h-9v-5.81h9v-3.72h-9V593.8h9v-3.72h-9v-5.81h9v-3.72h-9v-5.81h9V571h-9v-6.86h19.43V734.62h-19.43Zm19.51-166.8h-19.58a3.81,3.81,0,0,0-2.66,1.07,3.59,3.59,0,0,0-1.11,2.58v170.6a3.59,3.59,0,0,0,1.11,2.58,3.81,3.81,0,0,0,2.66,1.07h19.58a3.8,3.8,0,0,0,2.65-1.07,3.58,3.58,0,0,0,1.1-2.58V564.09a3.58,3.58,0,0,0-1.1-2.58,3.8,3.8,0,0,0-2.65-1.07" transform="translate(-135.55 -148.55)"/><path class="cls-5" d="M1212.73,513.49h0c-27.7,0-50.36,22-50.36,48.81V736.48h100.71V562.3c0-26.85-22.66-48.81-50.35-48.81" transform="translate(-135.55 -148.55)"/><path class="cls-6" d="M1212.72,513.49v223h50.36V562.3c0-24.32-18.59-44.63-42.68-48.24a51.14,51.14,0,0,0-7.68-.57" transform="translate(-135.55 -148.55)"/><path class="cls-6" d="M925,652.43H853.65c-6.39,0-11.84-5.08-11.62-11.27l11.62-328.91A11.63,11.63,0,0,1,865.27,301h48.08A11.63,11.63,0,0,1,925,312.25L936.6,641.16c.21,6.19-5.24,11.27-11.63,11.27" transform="translate(-135.55 -148.55)"/><path class="cls-11" d="M855.09,293.37h68.44a12,12,0,0,1,12.2,11.82h0A12.06,12.06,0,0,1,923.53,317H855.09a12.06,12.06,0,0,1-12.2-11.83h0a12,12,0,0,1,12.2-11.82" transform="translate(-135.55 -148.55)"/><path class="cls-6" d="M1059,611.35H987.72c-6.39,0-11.84-5.08-11.63-11.27l11.63-328.91a11.63,11.63,0,0,1,11.62-11.27h48.07A11.63,11.63,0,0,1,1059,271.17l11.62,328.91c.22,6.19-5.23,11.27-11.62,11.27" transform="translate(-135.55 -148.55)"/><polygon class="cls-8" points="652.44 589.28 991.53 589.28 991.53 401.75 877.57 290.43 767.11 396.18 767.4 323.11 652.44 401.75 652.44 589.28"/><rect class="cls-7" x="729.4" y="445.2" width="47.12" height="45.68"/><rect class="cls-7" x="798.42" y="445.2" width="47.12" height="45.68"/><rect class="cls-4" x="867.44" y="445.2" width="47.13" height="45.68"/><path class="cls-11" d="M988.57,252.28h69.62a12,12,0,1,1,0,24.07H988.57a12,12,0,1,1,0-24.07" transform="translate(-135.55 -148.55)"/><polygon class="cls-12" points="717.12 208.28 790.4 208.28 789.72 189.24 717.79 189.24 717.12 208.28"/><polygon class="cls-12" points="791.72 228.75 715.8 228.75 715.11 248.12 792.4 248.12 791.72 228.75"/><polygon class="cls-12" points="793.08 267.49 714.43 267.49 713.74 286.86 793.77 286.86 793.08 267.49"/><polygon class="cls-12" points="794.46 306.23 713.06 306.23 712.38 325.6 763.77 325.6 767.4 323.11 767.39 325.6 795.14 325.6 794.46 306.23"/><polygon class="cls-12" points="795.82 344.97 767.31 344.97 767.23 364.34 796.5 364.34 795.82 344.97"/><polygon class="cls-12" points="767.16 383.71 767.11 396.18 780.14 383.71 767.16 383.71"/><path class="cls-10" d="M1050.12,639.43H1003V593.75h47.12v45.68Zm-92.58,0v97.05h169.54V550.31l-60.26-58.87L1013.12,439l-14,13.37L980.69,470,957.54,492.2V593.75H981.1v45.68Z" transform="translate(-135.55 -148.55)"/><polygon class="cls-6" points="821.98 490.88 845.55 490.88 845.55 460.81 845.55 445.2 840.76 445.2 821.98 445.2 821.98 490.88"/><path class="cls-5" d="M1023.38,449V276.34H988.57c-.35,0-.69,0-1,0L980.69,470l32.43-31Z" transform="translate(-135.55 -148.55)"/><polygon class="cls-12" points="850.53 168.21 925.07 168.21 924.38 148.84 851.21 148.84 850.53 168.21"/><polygon class="cls-12" points="925.75 187.58 849.84 187.58 849.16 206.95 926.44 206.95 925.75 187.58"/><polygon class="cls-12" points="927.12 226.32 848.47 226.32 847.79 245.69 927.8 245.69 927.12 226.32"/><polygon class="cls-12" points="928.49 265.06 847.1 265.06 846.42 284.43 929.18 284.43 928.49 265.06"/><polygon class="cls-12" points="929.86 303.8 891.66 303.8 911.49 323.17 930.54 323.17 929.86 303.8"/><polygon class="cls-12" points="863.57 303.8 845.73 303.8 845.11 321.48 863.57 303.8"/><polygon class="cls-11" points="863.57 303.8 845.76 303.8 845.14 321.44 863.57 303.8"/><polygon class="cls-11" points="846.45 284.43 887.83 284.43 887.83 265.06 847.13 265.06 846.45 284.43"/><polygon class="cls-11" points="847.82 245.69 887.82 245.69 887.82 226.32 848.5 226.32 847.82 245.69"/><polygon class="cls-11" points="849.19 206.95 887.82 206.95 887.82 187.58 849.87 187.58 849.19 206.95"/><polygon class="cls-11" points="850.56 168.22 887.83 168.22 887.83 148.84 851.25 148.84 850.56 168.22"/><path class="cls-5" d="M889.31,481V317.43H854.49c-.34,0-.68,0-1,0l-6.85,192.79,37.22-25.44Z" transform="translate(-135.55 -148.55)"/><polygon class="cls-11" points="711.11 361.62 735.45 344.97 711.69 344.97 711.11 361.62"/><polygon class="cls-11" points="712.38 325.6 753.75 325.6 753.75 306.23 713.06 306.23 712.38 325.6"/><polygon class="cls-11" points="714.43 284.43 753.75 284.43 753.75 265.39 715.1 265.39 714.43 284.43"/><polygon class="cls-11" points="715.11 248.12 753.75 248.12 753.75 228.75 715.8 228.75 715.11 248.12"/><polygon class="cls-11" points="716.48 209.38 753.75 209.38 753.75 190.01 717.17 190.01 716.48 209.38"/><polygon class="cls-13" points="602.7 587.84 490.46 587.84 504.71 444.56 505.39 437.66 509.24 398.96 510.26 388.75 511.84 372.84 581.32 372.84 582.9 388.75 583.92 398.96 602.7 587.84"/><g class="cls-14"><polygon class="cls-15" points="590.85 468.65 510.3 388.32 511.84 372.84 581.32 372.84 582.9 388.75 583.92 398.96 590.85 468.65"/></g><path class="cls-16" d="M682.13,689.06a12,12,0,0,0-12,12V735.8h24V701A12,12,0,0,0,682.13,689.06Z" transform="translate(-135.55 -148.55)"/><path class="cls-17" d="M691.24,693.23a12,12,0,0,0-18,10.34V735.8h-3.06V701a12,12,0,0,1,21.11-7.8Z" transform="translate(-135.55 -148.55)"/><g class="cls-18"><polygon class="cls-15" points="602.7 587.84 584.92 587.84 570.93 372.84 581.32 372.84 602.7 587.84"/></g><rect class="cls-16" x="488.75" y="412.39" width="111.05" height="2.57"/><g class="cls-18"><polygon class="cls-15" points="575.6 444.56 504.71 444.56 505.39 437.66 575.15 437.66 575.6 444.56"/></g><path class="cls-19" d="M729.13,530.05h-94a3.6,3.6,0,0,1-2.61-5.89l22.44-28,24.56-30.62A3.32,3.32,0,0,1,683,464.4a3.38,3.38,0,0,1,1.73,1.15l24.56,30.63,22.55,28.11A3.6,3.6,0,0,1,729.13,530.05Z" transform="translate(-135.55 -148.55)"/><g class="cls-20"><path class="cls-21" d="M729.13,530.05H710.52L683,464.4a3.38,3.38,0,0,1,1.73,1.15l24.56,30.63,22.55,28.11A3.6,3.6,0,0,1,729.13,530.05Z" transform="translate(-135.55 -148.55)"/></g><path class="cls-19" d="M732.55,529.16v5.4a2.75,2.75,0,0,1-2.75,2.74H634.46a2.75,2.75,0,0,1-2.75-2.74v-8.14c0-1.52,1.23,0,2.75,0H729.8A2.75,2.75,0,0,1,732.55,529.16Z" transform="translate(-135.55 -148.55)"/><g class="cls-20"><path class="cls-21" d="M732.55,526.42v8.14a2.75,2.75,0,0,1-2.75,2.74H709V526.42Z" transform="translate(-135.55 -148.55)"/></g><g class="cls-18"><polygon class="cls-15" points="572.63 398.96 509.24 398.96 510.26 388.75 571.97 388.75 572.63 398.96"/></g><rect class="cls-16" x="538.8" y="495.49" width="12.17" height="12.14"/><polygon class="cls-17" points="550.98 495.49 550.98 498.33 540.84 498.33 540.84 507.64 538.8 507.64 538.8 495.49 550.98 495.49"/><rect class="cls-16" x="538.8" y="455.52" width="12.17" height="12.14"/><polygon class="cls-17" points="550.98 455.52 550.98 458.35 540.84 458.35 540.84 467.66 538.8 467.66 538.8 455.52 550.98 455.52"/><rect class="cls-16" x="488.75" y="429.79" width="111.05" height="7.86"/><rect class="cls-16" x="488.75" y="414.95" width="1.71" height="14.84"/><rect class="cls-16" x="497.86" y="414.95" width="1.71" height="14.84"/><rect class="cls-16" x="506.97" y="414.95" width="1.71" height="14.84"/><rect class="cls-16" x="516.08" y="414.95" width="1.71" height="14.84"/><rect class="cls-16" x="525.2" y="414.95" width="1.71" height="14.84"/><rect class="cls-16" x="534.31" y="414.95" width="1.71" height="14.84"/><rect class="cls-16" x="543.42" y="414.95" width="1.71" height="14.84"/><rect class="cls-16" x="552.53" y="414.95" width="1.71" height="14.84"/><rect class="cls-16" x="561.64" y="414.95" width="1.71" height="14.84"/><rect class="cls-16" x="570.75" y="414.95" width="1.71" height="14.84"/><rect class="cls-16" x="579.87" y="414.95" width="1.71" height="14.84"/><rect class="cls-16" x="588.98" y="414.95" width="1.71" height="14.84"/><rect class="cls-16" x="598.09" y="414.95" width="1.71" height="14.84"/><g class="cls-14"><polygon class="cls-15" points="598.67 547.27 503.89 452.75 504.71 444.56 505.39 437.66 506.17 429.79 586.98 429.79 587.77 437.66 598.67 547.27"/></g><g class="cls-14"><polygon class="cls-15" points="599.79 429.79 599.79 437.66 505.39 437.66 506.17 429.79 599.79 429.79"/></g><g class="cls-14"><line class="cls-15" x1="598.67" y1="547.28" x2="503.89" y2="452.75"/></g><ellipse class="cls-22" cx="546.58" cy="364.02" rx="6.8" ry="6.79"/><ellipse class="cls-22" cx="545.13" cy="364.02" rx="10.25" ry="10.23"/><polygon class="cls-22" points="668.36 244.19 546.66 365.55 543.59 362.49 665.29 241.13 668.36 244.19"/><polygon class="cls-22" points="583.35 316.36 662.04 237.89 666.82 242.66 588.13 321.13 583.35 316.36"/><polygon class="cls-22" points="570.4 297.92 567.63 300.68 588.13 321.13 590.9 318.37 570.4 297.92"/><polygon class="cls-23" points="567.91 300.96 567.36 300.41 646.05 221.94 646.59 222.49 567.91 300.96"/><path class="cls-22" d="M798.3,387.15l-76.22,76-16.74-16.69,76.22-76ZM722.08,462l75-74.81-15.52-15.47-75,74.8Z" transform="translate(-135.55 -148.55)"/><polygon class="cls-22" points="659.76 236.23 584.14 311.64 583.53 311.03 659.15 235.61 659.76 236.23"/><polygon class="cls-22" points="657.07 233.54 581.45 308.96 580.84 308.34 656.46 232.93 657.07 233.54"/><polygon class="cls-22" points="654.38 230.86 578.77 306.27 578.15 305.66 653.77 230.25 654.38 230.86"/><polygon class="cls-22" points="651.7 228.19 576.08 303.59 575.46 302.98 651.08 227.57 651.7 228.19"/><rect class="cls-22" x="693.05" y="411.02" width="106.8" height="0.87" transform="translate(-208.19 498.66) rotate(-44.92)"/><polygon class="cls-22" points="599.43 301.14 598.82 301.75 582.69 285.66 583.3 285.05 599.43 301.14"/><polygon class="cls-22" points="612.04 288.57 611.42 289.18 595.29 273.09 595.91 272.48 612.04 288.57"/><polygon class="cls-22" points="624.64 276 624.03 276.61 607.9 260.52 608.51 259.91 624.64 276"/><polygon class="cls-22" points="637.24 263.44 636.63 264.04 620.5 247.96 621.11 247.34 637.24 263.44"/><polygon class="cls-22" points="649.85 250.87 649.23 251.47 633.1 235.39 633.72 234.78 649.85 250.87"/><polygon class="cls-22" points="421.9 483.85 543.59 362.49 546.66 365.55 424.98 486.91 421.9 483.85"/><polygon class="cls-22" points="506.91 411.68 428.23 490.15 423.44 485.38 502.12 406.91 506.91 411.68"/><polygon class="cls-22" points="519.87 430.12 522.63 427.36 502.12 406.91 499.36 409.67 519.87 430.12"/><polygon class="cls-23" points="444.22 506.1 443.67 505.56 522.36 427.09 522.9 427.63 444.22 506.1"/><path class="cls-22" d="M563.06,638l76.23-76L656,578.67l-76.23,76Zm76.23-74.79-75,74.79,15.52,15.48,75-74.8Z" transform="translate(-135.55 -148.55)"/><polygon class="cls-22" points="430.5 491.82 506.12 416.4 506.73 417.02 431.11 492.43 430.5 491.82"/><polygon class="cls-22" points="433.19 494.5 508.81 419.09 509.42 419.7 433.81 495.11 433.19 494.5"/><polygon class="cls-22" points="435.88 497.18 511.5 421.77 512.11 422.38 436.5 497.79 435.88 497.18"/><polygon class="cls-22" points="438.57 499.86 514.18 424.44 514.8 425.06 439.18 500.48 438.57 499.86"/><polygon class="cls-22" points="441.26 502.54 516.87 427.13 517.48 427.75 441.87 503.15 441.26 502.54"/><polygon class="cls-22" points="490.83 426.9 491.44 426.29 507.57 442.38 506.96 442.99 490.83 426.9"/><polygon class="cls-22" points="478.23 439.47 478.83 438.86 494.97 454.95 494.36 455.56 478.23 439.47"/><polygon class="cls-22" points="465.62 452.04 466.23 451.43 482.37 467.52 481.75 468.13 465.62 452.04"/><polygon class="cls-22" points="453.02 464.61 453.63 464 469.76 480.09 469.15 480.69 453.02 464.61"/><polygon class="cls-22" points="440.42 477.18 441.02 476.57 457.16 492.65 456.55 493.26 440.42 477.18"/><polygon class="cls-22" points="424.98 241.13 546.66 362.49 543.59 365.55 421.9 244.19 424.98 241.13"/><polygon class="cls-22" points="497.34 325.9 418.65 247.43 423.44 242.66 502.12 321.13 497.34 325.9"/><polygon class="cls-22" points="478.86 338.82 481.62 341.58 502.12 321.13 499.36 318.37 478.86 338.82"/><polygon class="cls-23" points="481.35 341.86 402.66 263.38 403.21 262.83 481.9 341.31 481.35 341.86"/><path class="cls-22" d="M554.92,395.27l76.23,76L614.41,488l-76.23-76Zm75,76-75-74.8L539.4,412l75,74.8Z" transform="translate(-135.55 -148.55)"/><polygon class="cls-22" points="416.99 249.7 492.6 325.12 491.99 325.73 416.38 250.32 416.99 249.7"/><polygon class="cls-22" points="414.3 252.39 489.92 327.8 489.3 328.41 413.69 253 414.3 252.39"/><polygon class="cls-22" points="411.61 255.07 487.23 330.47 486.61 331.09 411 255.68 411.61 255.07"/><polygon class="cls-22" points="408.92 257.74 484.54 333.16 483.93 333.77 408.31 258.36 408.92 257.74"/><polygon class="cls-22" points="406.24 260.43 481.85 335.84 481.24 336.45 405.62 261.04 406.24 260.43"/><polygon class="cls-22" points="482.08 309.87 482.69 310.48 466.56 326.56 465.95 325.95 482.08 309.87"/><polygon class="cls-22" points="469.48 297.3 470.09 297.9 453.95 313.99 453.35 313.38 469.48 297.3"/><polygon class="cls-22" points="456.87 284.73 457.48 285.34 441.35 301.42 440.74 300.82 456.87 284.73"/><polygon class="cls-22" points="444.27 272.16 444.88 272.77 428.75 288.86 428.14 288.25 444.27 272.16"/><polygon class="cls-22" points="431.67 259.59 432.28 260.2 416.14 276.29 415.54 275.68 431.67 259.59"/><polygon class="cls-22" points="665.29 486.91 543.59 365.55 546.66 362.49 668.36 483.85 665.29 486.91"/><polygon class="cls-22" points="592.92 402.14 671.61 480.61 666.82 485.38 588.13 406.91 592.92 402.14"/><polygon class="cls-22" points="611.41 389.22 608.64 386.46 588.13 406.91 590.9 409.67 611.41 389.22"/><polygon class="cls-23" points="687.06 465.2 608.37 386.73 608.92 386.19 687.6 464.66 687.06 465.2"/><path class="cls-22" d="M806.44,629.88l-76.22-76L747,537.16l76.23,76Zm-75-76,75,74.81L822,613.18l-75-74.8Z" transform="translate(-135.55 -148.55)"/><polygon class="cls-22" points="673.28 478.34 597.65 402.93 598.27 402.31 673.89 477.73 673.28 478.34"/><polygon class="cls-22" points="675.96 475.66 600.35 400.24 600.96 399.63 676.58 475.04 675.96 475.66"/><polygon class="cls-22" points="678.65 472.98 603.04 397.56 603.65 396.95 679.26 472.36 678.65 472.98"/><polygon class="cls-22" points="681.34 470.29 605.72 394.89 606.34 394.27 681.95 469.68 681.34 470.29"/><polygon class="cls-22" points="684.03 467.62 608.41 392.2 609.03 391.59 684.64 467 684.03 467.62"/><polygon class="cls-22" points="608.19 418.17 607.57 417.57 623.71 401.48 624.31 402.09 608.19 418.17"/><polygon class="cls-22" points="620.79 430.74 620.17 430.14 636.3 414.05 636.92 414.66 620.79 430.74"/><polygon class="cls-22" points="633.39 443.31 632.78 442.7 648.91 426.61 649.52 427.23 633.39 443.31"/><polygon class="cls-22" points="645.99 455.88 645.38 455.27 661.51 439.18 662.12 439.8 645.99 455.88"/><polygon class="cls-22" points="658.6 468.45 657.98 467.84 674.11 451.75 674.73 452.36 658.6 468.45"/><ellipse class="cls-13" cx="545.13" cy="364.02" rx="4.8" ry="4.79"/><path class="cls-24" d="M1328.19,738.73c-67-58.75-184.42-97.7-318-97.7s-251,39-318,97.7Z" transform="translate(-135.55 -148.55)"/><path class="cls-25" d="M149.57,809.42h57.57c7.53,0,13.64-7.12,13.64-15.89V790c0-8.78,6.1-15.9,13.63-15.9h0c-7.75,0-14-8.37-13.62-18.52.35-9.51,6.66-16.82,14-16.82H1629c7.34,0,13.66,7.31,14,16.82.37,10.15-5.87,18.52-13.62,18.52h-16.78c-7.53,0-13.64,7.92-13.64,17.68h0c0,9.76,6.11,17.67,13.64,17.67h57.57c7.34,0,13.66,7.31,14,16.82.37,10.15-5.87,18.52-13.62,18.52H1585c-7.53,0-13.63,7.92-13.63,17.68h0c0,9.76,6.1,17.67,13.63,17.67H1629c7.34,0,13.66,7.31,14,16.81.37,10.15-5.87,18.53-13.62,18.53h-14.83c-7.53,0-13.63,7.91-13.63,17.67h0c0,9.76,6.1,17.68,13.63,17.68h23.91c7.34,0,13.66,7.31,14,16.81.37,10.15-5.87,18.53-13.62,18.53H1576c-7.53,0-13.63,7.91-13.63,17.67h0c0,9.76,6.1,17.67,13.63,17.67h52.94c7.34,0,13.66,7.32,14,16.82.37,10.15-5.87,18.53-13.62,18.53H1509.08c-7.53,0-13.63,7.91-13.63,17.67h0c0,9.76,6.1,17.67,13.63,17.67h93.1c7.34,0,13.66,7.31,14,16.82.37,10.15-5.87,18.53-13.62,18.53H283.42c-7.34,0-13.66-7.32-14-16.82-.37-10.15,5.87-18.53,13.62-18.53h93.48c7.53,0,13.64-7.91,13.64-17.67h0c0-9.76-6.11-17.67-13.64-17.67H256.7c-7.34,0-13.66-7.32-14-16.82-.37-10.15,5.87-18.53,13.62-18.53h53.32c7.53,0,13.64-7.91,13.64-17.67h0c0-9.76-6.11-17.67-13.64-17.67H190.13c-7.34,0-13.66-7.31-14-16.82-.37-10.15,5.87-18.52,13.62-18.52h279.4c7.54,0,13.64-7.92,13.64-17.68h0c0-9.76-6.1-17.67-13.64-17.67H454.72c-7.35,0-13.66-7.31-14-16.82-.37-10.14,5.87-18.52,13.62-18.52H283c-7.53,0-13.64-7.91-13.64-17.67h0c0-9.76-6.1-17.68-13.63-17.68H149.19c-7.75,0-14-8.37-13.62-18.52C135.91,816.73,142.23,809.42,149.57,809.42Z" transform="translate(-135.55 -148.55)"/><path class="cls-26" d="M1714.62,738.73c-72.15-55.28-198.49-91.92-342.3-91.92s-270.16,36.64-342.3,91.92Z" transform="translate(-135.55 -148.55)"/><path class="cls-27" d="M361.84,1113.68h31.41c12.29,0,22.25-8.13,22.25-18.17h0c0-10,10-18.16,22.24-18.16H799.3c-24.57,0-44.49-16.26-44.49-36.32h0c0-20.06,19.92-36.32,44.49-36.32h123c24.57,0,44.49-16.27,44.49-36.33h0c0-20.06-19.92-36.32-44.49-36.32h-140c-12,0-22.29-7.52-22.85-17.28-.6-10.43,9.58-19,22.22-19H959c24.57,0,44.49-16.27,44.49-36.33h0c0-20.06-19.92-36.32-44.49-36.32h-73c-12,0-22.28-7.52-22.85-17.28-.6-10.43,9.58-19,22.22-19h134.43c-12.64,0-22.82-8.61-22.22-19,.56-9.77,10.86-17.29,22.84-17.29h330.08c12,0,22.28,7.52,22.84,17.29.61,10.43-9.57,19-22.22,19h-25.73c-12.28,0-22.24,8.13-22.24,18.16h0c0,10,10,18.16,22.24,18.16h95.83c12.29,0,22.25,8.13,22.25,18.16h0c0,10-10,18.16-22.25,18.16h-152c-12.29,0-22.25,8.13-22.25,18.16h0c0,10,10,18.17,22.25,18.17h91.26c12,0,22.29,7.51,22.85,17.28.6,10.43-9.58,19-22.22,19h-35.68c-12.28,0-22.24,8.13-22.24,18.16h0c0,10,10,18.16,22.24,18.16h137.15c12.29,0,22.25,8.13,22.25,18.16h0c0,10-10,18.17-22.25,18.17H1140.7c-12.28,0-22.24,8.13-22.24,18.16h0c0,10,10,18.16,22.24,18.16h151.36c12,0,22.39,7.54,22.92,17.34.56,10.4-9.6,19-22.23,19H867.11c-12.28,0-22.24,8.13-22.24,18.16h0c0,10,10,18.17,22.24,18.17H1197c12,0,22.29,7.51,22.85,17.28.61,10.43-9.57,19-22.22,19H361.21c-12.65,0-22.83-8.61-22.22-19C339.55,1121.19,349.86,1113.68,361.84,1113.68Z" transform="translate(-135.55 -148.55)"/><rect class="cls-28" x="1422.91" y="365.95" width="40.85" height="224.23"/><rect class="cls-29" x="1413.62" y="412.59" width="59.43" height="24.81"/><rect class="cls-29" x="1413.62" y="470.35" width="59.43" height="24.81"/><rect class="cls-29" x="1413.62" y="530.99" width="59.43" height="24.81"/><path class="cls-30" d="M1490,459.81A69.21,69.21,0,0,0,1420.76,529h21.53l11.35-19.66L1465,529h13.64L1490,509.37,1501.33,529h15.93l11.35-19.66L1540,529h19.25A69.22,69.22,0,0,0,1490,459.81Z" transform="translate(-135.55 -148.55)"/><path class="cls-31" d="M1668.54,459.81A69.21,69.21,0,0,0,1599.31,529h21.53l11.35-19.66L1643.55,529h13.63l11.36-19.66L1679.89,529h15.92l11.35-19.66L1718.51,529h19.25A69.21,69.21,0,0,0,1668.54,459.81Z" transform="translate(-135.55 -148.55)"/><path class="cls-32" d="M1581.08,431a69.23,69.23,0,0,0,18.42,96.16l12.09-17.83-9.9-20.42,22.64,1.64,7.66-11.29-9.89-20.43,22.64,1.65,8.94-13.18-9.9-20.43,22.64,1.65,10.81-15.94A69.25,69.25,0,0,0,1581.08,431Z" transform="translate(-135.55 -148.55)"/><path class="cls-33" d="M1574.33,431a69.24,69.24,0,0,1-18.41,96.16l-12.09-17.83,9.89-20.42-22.64,1.64-7.65-11.29,9.89-20.43-22.64,1.65-8.94-13.18,9.89-20.43L1489,428.48l-10.81-15.94A69.24,69.24,0,0,1,1574.33,431Z" transform="translate(-135.55 -148.55)"/><path class="cls-34" d="M1581,525.09a21.84,21.84,0,1,1-21.83-21.84A21.83,21.83,0,0,1,1581,525.09Z" transform="translate(-135.55 -148.55)"/><path class="cls-34" d="M1624.72,525.09a21.84,21.84,0,1,1-21.84-21.84A21.84,21.84,0,0,1,1624.72,525.09Z" transform="translate(-135.55 -148.55)"/><path class="cls-35" d="M1600.72,503.25a21.84,21.84,0,1,1-21.83-21.84A21.83,21.83,0,0,1,1600.72,503.25Z" transform="translate(-135.55 -148.55)"/><rect class="cls-28" x="1159.86" y="365.95" width="40.85" height="224.23"/><rect class="cls-29" x="1150.57" y="412.59" width="59.43" height="24.81"/><rect class="cls-29" x="1150.57" y="470.35" width="59.43" height="24.81"/><rect class="cls-29" x="1150.57" y="530.99" width="59.43" height="24.81"/><path class="cls-30" d="M1226.94,459.81A69.21,69.21,0,0,0,1157.71,529h21.53l11.35-19.66L1202,529h13.63l11.36-19.66L1238.29,529h15.92l11.35-19.66L1276.91,529h19.25A69.21,69.21,0,0,0,1226.94,459.81Z" transform="translate(-135.55 -148.55)"/><path class="cls-31" d="M1405.49,459.81A69.22,69.22,0,0,0,1336.26,529h21.54l11.35-19.66L1380.5,529h13.64l11.35-19.66L1416.84,529h15.93l11.35-19.66L1455.47,529h19.24A69.21,69.21,0,0,0,1405.49,459.81Z" transform="translate(-135.55 -148.55)"/><path class="cls-32" d="M1318,431a69.23,69.23,0,0,0,18.41,96.16l12.09-17.83-9.89-20.42,22.64,1.64,7.65-11.29-9.89-20.43,22.64,1.65,8.94-13.18-9.89-20.43,22.64,1.65,10.81-15.94A69.24,69.24,0,0,0,1318,431Z" transform="translate(-135.55 -148.55)"/><path class="cls-33" d="M1311.29,431a69.24,69.24,0,0,1-18.42,96.16l-12.09-17.83,9.9-20.42L1268,490.51l-7.66-11.29,9.89-20.43-22.64,1.65-8.94-13.18,9.89-20.43-22.64,1.65-10.8-15.94A69.25,69.25,0,0,1,1311.29,431Z" transform="translate(-135.55 -148.55)"/><path class="cls-34" d="M1318,525.09a21.84,21.84,0,1,1-21.84-21.84A21.84,21.84,0,0,1,1318,525.09Z" transform="translate(-135.55 -148.55)"/><path class="cls-34" d="M1361.67,525.09a21.84,21.84,0,1,1-21.84-21.84A21.84,21.84,0,0,1,1361.67,525.09Z" transform="translate(-135.55 -148.55)"/><path class="cls-35" d="M1337.68,503.25a21.84,21.84,0,1,1-21.84-21.84A21.84,21.84,0,0,1,1337.68,503.25Z" transform="translate(-135.55 -148.55)"/><rect class="cls-28" x="1081.77" y="445.8" width="26.3" height="144.38"/><rect class="cls-29" x="1075.79" y="475.83" width="38.27" height="15.98"/><rect class="cls-29" x="1075.79" y="513.02" width="38.27" height="15.98"/><rect class="cls-29" x="1075.79" y="552.07" width="38.27" height="15.98"/><path class="cls-30" d="M1173.23,559.14a44.57,44.57,0,0,0-44.58,44.57h13.87l7.31-12.67,7.31,12.67h8.78l7.31-12.67,7.3,12.67h10.26L1198.1,591l7.31,12.67h12.39A44.56,44.56,0,0,0,1173.23,559.14Z" transform="translate(-135.55 -148.55)"/><path class="cls-31" d="M1288.2,559.14a44.57,44.57,0,0,0-44.58,44.57h13.87L1264.8,591l7.31,12.67h8.78L1288.2,591l7.3,12.67h10.26l7.31-12.67,7.31,12.67h12.39A44.56,44.56,0,0,0,1288.2,559.14Z" transform="translate(-135.55 -148.55)"/><path class="cls-32" d="M1231.89,540.56a44.56,44.56,0,0,0,11.85,61.91l7.79-11.47-6.37-13.16,14.58,1.07,4.92-7.28-6.37-13.15,14.58,1.06,5.76-8.49-6.37-13.15,14.58,1.06,7-10.26A44.57,44.57,0,0,0,1231.89,540.56Z" transform="translate(-135.55 -148.55)"/><path class="cls-33" d="M1227.54,540.56a44.57,44.57,0,0,1-11.86,61.91L1207.9,591l6.37-13.16-14.58,1.07-4.93-7.28,6.37-13.15-14.58,1.06-5.75-8.49,6.37-13.15L1172.59,539l-7-10.26A44.57,44.57,0,0,1,1227.54,540.56Z" transform="translate(-135.55 -148.55)"/><path class="cls-34" d="M1231.86,601.17a14.06,14.06,0,1,1-14.06-14.07A14.06,14.06,0,0,1,1231.86,601.17Z" transform="translate(-135.55 -148.55)"/><path class="cls-34" d="M1260,601.17a14.06,14.06,0,1,1-14.06-14.07A14.06,14.06,0,0,1,1260,601.17Z" transform="translate(-135.55 -148.55)"/><path class="cls-35" d="M1244.53,587.1a14.06,14.06,0,1,1-14.06-14.05A14.06,14.06,0,0,1,1244.53,587.1Z" transform="translate(-135.55 -148.55)"/><rect class="cls-28" x="1265.44" y="434.02" width="28.45" height="156.15"/><rect class="cls-29" x="1258.97" y="466.5" width="41.39" height="17.28"/><rect class="cls-29" x="1258.97" y="506.73" width="41.39" height="17.28"/><rect class="cls-29" x="1258.97" y="548.96" width="41.39" height="17.28"/><path class="cls-30" d="M1353.3,544.49a48.2,48.2,0,0,0-48.21,48.21h15L1328,579l7.91,13.7h9.49l7.91-13.7,7.9,13.7h11.09l7.91-13.7,7.9,13.7h13.41A48.2,48.2,0,0,0,1353.3,544.49Z" transform="translate(-135.55 -148.55)"/><path class="cls-31" d="M1477.64,544.49a48.2,48.2,0,0,0-48.2,48.21h15l7.91-13.7,7.9,13.7h9.5l7.9-13.7,7.91,13.7h11.09l7.9-13.7,7.91,13.7h13.4A48.2,48.2,0,0,0,1477.64,544.49Z" transform="translate(-135.55 -148.55)"/><path class="cls-32" d="M1416.74,524.4a48.21,48.21,0,0,0,12.82,67L1438,579l-6.9-14.23,15.77,1.15,5.33-7.86-6.89-14.23,15.77,1.15,6.23-9.18-6.89-14.23,15.76,1.15,7.53-11.1A48.22,48.22,0,0,0,1416.74,524.4Z" transform="translate(-135.55 -148.55)"/><path class="cls-33" d="M1412,524.4a48.21,48.21,0,0,1-12.82,67L1390.8,579l6.89-14.23-15.77,1.15-5.33-7.86,6.89-14.23-15.77,1.15-6.23-9.18,6.89-14.23-15.76,1.15-7.53-11.1A48.22,48.22,0,0,1,1412,524.4Z" transform="translate(-135.55 -148.55)"/><path class="cls-34" d="M1416.71,590a15.21,15.21,0,1,1-15.2-15.21A15.2,15.2,0,0,1,1416.71,590Z" transform="translate(-135.55 -148.55)"/><path class="cls-34" d="M1447.13,590a15.21,15.21,0,1,1-15.21-15.21A15.21,15.21,0,0,1,1447.13,590Z" transform="translate(-135.55 -148.55)"/><path class="cls-35" d="M1430.42,574.74a15.21,15.21,0,1,1-15.21-15.21A15.21,15.21,0,0,1,1430.42,574.74Z" transform="translate(-135.55 -148.55)"/><rect class="cls-29" x="1236.21" y="493.04" width="22.4" height="97"/><polygon class="cls-28" points="1263.7 589.84 1231.12 589.84 1236.21 545.07 1258.61 545.07 1263.7 589.84"/><path class="cls-31" d="M1420.5,613.76a38,38,0,0,0-38.06,37.85l75.92.21A38,38,0,0,0,1420.5,613.76Z" transform="translate(-135.55 -148.55)"/><path class="cls-31" d="M1344.83,613.88a38,38,0,0,0-37.75,38.18l75.92-.43A38,38,0,0,0,1344.83,613.88Z" transform="translate(-135.55 -148.55)"/><rect class="cls-28" x="1370.8" y="651.63" width="25.11" height="17.86" transform="translate(2631.16 1172.56) rotate(-180)"/><path class="cls-33" d="M1351.73,611.5a39.77,39.77,0,0,0,39.53,40l.54-79.59A39.82,39.82,0,0,0,1351.73,611.5Z" transform="translate(-135.55 -148.55)"/><rect class="cls-29" x="1037.41" y="500.95" width="20.57" height="89.1"/><polygon class="cls-28" points="1062.66 589.86 1032.73 589.86 1037.41 548.73 1057.98 548.73 1062.66 589.86"/><path class="cls-31" d="M1217.73,623.94a34.85,34.85,0,0,0-35,34.76l69.72.19A34.86,34.86,0,0,0,1217.73,623.94Z" transform="translate(-135.55 -148.55)"/><path class="cls-31" d="M1148.23,624.05a34.87,34.87,0,0,0-34.67,35.07l69.72-.41A34.86,34.86,0,0,0,1148.23,624.05Z" transform="translate(-135.55 -148.55)"/><rect class="cls-28" x="1172.08" y="658.71" width="23.06" height="16.4" transform="translate(2231.67 1185.28) rotate(-180)"/><path class="cls-33" d="M1154.57,621.86a36.54,36.54,0,0,0,36.3,36.79l.5-73.11A36.57,36.57,0,0,0,1154.57,621.86Z" transform="translate(-135.55 -148.55)"/><rect class="cls-29" x="992.3" y="533.25" width="13.11" height="56.79"/><polygon class="cls-28" points="1008.39 589.92 989.32 589.92 992.3 563.71 1005.41 563.71 1008.39 589.92"/><path class="cls-31" d="M1156.38,665.51a22.22,22.22,0,0,0-22.28,22.16l44.45.12A22.22,22.22,0,0,0,1156.38,665.51Z" transform="translate(-135.55 -148.55)"/><path class="cls-31" d="M1112.08,665.58a22.23,22.23,0,0,0-22.1,22.35l44.45-.25A22.24,22.24,0,0,0,1112.08,665.58Z" transform="translate(-135.55 -148.55)"/><rect class="cls-28" x="1127.29" y="687.68" width="14.7" height="10.46" transform="translate(2133.72 1237.26) rotate(-180)"/><path class="cls-33" d="M1116.12,664.18a23.3,23.3,0,0,0,23.14,23.46l.32-46.61A23.32,23.32,0,0,0,1116.12,664.18Z" transform="translate(-135.55 -148.55)"/><rect class="cls-28" x="384.38" y="319.94" width="47.21" height="259.14"/><rect class="cls-29" x="373.64" y="373.83" width="68.68" height="28.68"/><rect class="cls-29" x="373.64" y="440.58" width="68.68" height="28.68"/><rect class="cls-29" x="373.64" y="510.67" width="68.68" height="28.68"/><path class="cls-30" d="M440.79,405.28a80,80,0,0,0-80,80h24.89l13.12-22.73,13.12,22.73h15.76l13.12-22.73,13.11,22.73h18.41l13.12-22.73,13.11,22.73h22.25A80,80,0,0,0,440.79,405.28Z" transform="translate(-135.55 -148.55)"/><path class="cls-31" d="M647.14,405.28a80,80,0,0,0-80,80H592l13.12-22.73,13.12,22.73H634l13.12-22.73,13.12,22.73h18.4l13.12-22.73,13.12,22.73h22.24A80,80,0,0,0,647.14,405.28Z" transform="translate(-135.55 -148.55)"/><path class="cls-32" d="M546.07,371.94a80,80,0,0,0,21.28,111.13l14-20.6-11.44-23.61,26.17,1.9,8.84-13.05L593.47,404.1,619.64,406,630,390.77l-11.44-23.61,26.17,1.91,12.49-18.42A80,80,0,0,0,546.07,371.94Z" transform="translate(-135.55 -148.55)"/><path class="cls-33" d="M538.27,371.94A80,80,0,0,1,517,483.07l-14-20.6,11.43-23.61-26.16,1.9-8.85-13.05,11.43-23.61L464.7,406l-10.33-15.24,11.44-23.61-26.17,1.91-12.49-18.42A80,80,0,0,1,538.27,371.94Z" transform="translate(-135.55 -148.55)"/><path class="cls-34" d="M546,480.73a25.24,25.24,0,1,1-25.23-25.25A25.23,25.23,0,0,1,546,480.73Z" transform="translate(-135.55 -148.55)"/><path class="cls-34" d="M596.5,480.73a25.24,25.24,0,1,1-25.24-25.25A25.24,25.24,0,0,1,596.5,480.73Z" transform="translate(-135.55 -148.55)"/><path class="cls-35" d="M568.77,455.48a25.24,25.24,0,1,1-25.24-25.23A25.24,25.24,0,0,1,568.77,455.48Z" transform="translate(-135.55 -148.55)"/><rect class="cls-28" x="272.33" y="200.9" width="70.96" height="389.52"/><rect class="cls-29" x="256.19" y="281.92" width="103.24" height="43.11"/><rect class="cls-29" x="256.19" y="382.25" width="103.24" height="43.11"/><rect class="cls-29" x="256.19" y="487.6" width="103.24" height="43.11"/><path class="cls-30" d="M288.93,254.44A120.24,120.24,0,0,0,168.67,374.69h37.41l19.72-34.16,19.72,34.16h23.69l19.72-34.16,19.71,34.16h27.67L356,340.53l19.71,34.16h33.44A120.24,120.24,0,0,0,288.93,254.44Z" transform="translate(-135.55 -148.55)"/><path class="cls-31" d="M599.1,254.44A120.24,120.24,0,0,0,478.85,374.69h37.41L536,340.53l19.73,34.16h23.69l19.71-34.16,19.72,34.16h27.67l19.72-34.16,19.71,34.16h33.44A120.24,120.24,0,0,0,599.1,254.44Z" transform="translate(-135.55 -148.55)"/><path class="cls-32" d="M447.18,204.33a120.27,120.27,0,0,0,32,167l21-31L483,304.92l39.33,2.86,13.3-19.62-17.19-35.49,39.34,2.87,15.52-22.9-17.18-35.49L595.44,200l18.77-27.68A120.27,120.27,0,0,0,447.18,204.33Z" transform="translate(-135.55 -148.55)"/><path class="cls-33" d="M435.46,204.33a120.27,120.27,0,0,1-32,167l-21-31,17.19-35.48-39.33,2.86L347,288.16l17.19-35.49-39.33,2.87-15.53-22.9,17.18-35.49L287.2,200l-18.77-27.68A120.27,120.27,0,0,1,435.46,204.33Z" transform="translate(-135.55 -148.55)"/><path class="cls-34" d="M447.11,367.85a37.93,37.93,0,1,1-37.93-38A37.93,37.93,0,0,1,447.11,367.85Z" transform="translate(-135.55 -148.55)"/><path class="cls-34" d="M523,367.85a37.94,37.94,0,1,1-37.93-38A37.93,37.93,0,0,1,523,367.85Z" transform="translate(-135.55 -148.55)"/><path class="cls-35" d="M481.3,329.9A37.94,37.94,0,1,1,443.37,292,37.94,37.94,0,0,1,481.3,329.9Z" transform="translate(-135.55 -148.55)"/><path class="cls-36" d="M1585.79,608.86l33.91-19.31a10,10,0,0,1,9.87,0l33.9,19.31a9.69,9.69,0,0,1,4.93,8.43V655.9a9.7,9.7,0,0,1-4.93,8.43l-33.9,19.3a10,10,0,0,1-9.87,0l-33.91-19.3a9.72,9.72,0,0,1-4.93-8.43V617.29A9.71,9.71,0,0,1,1585.79,608.86Z" transform="translate(-135.55 -148.55)"/><path class="cls-37" d="M1624.63,603.59v66a9.87,9.87,0,0,1-14.8,8.43l-24-13.68a9.72,9.72,0,0,1-4.93-8.43V617.29a9.7,9.7,0,0,1,4.93-8.43l24-13.69A9.86,9.86,0,0,1,1624.63,603.59Z" transform="translate(-135.55 -148.55)"/><path class="cls-38" d="M1640.39,670.21l-14,12.1-.8-20.59a.81.81,0,0,0-.8-.75.78.78,0,0,0-.79.75l-.81,20.61L1610.06,671a.8.8,0,0,0-1.08,0,.76.76,0,0,0,0,1.06L1623,688l-1.92,48.88a.82.82,0,0,0,.23.58.78.78,0,0,0,.57.24h5.91a.78.78,0,0,0,.79-.78.66.66,0,0,0,0-.21l-1.9-48.71,14.85-16.67a.78.78,0,0,0,0-1.07A.81.81,0,0,0,1640.39,670.21Z" transform="translate(-135.55 -148.55)"/><polygon class="cls-39" points="1489.29 513.99 1489.29 589.15 1486.35 589.15 1488.28 539.89 1488.25 539.92 1473.99 523.8 1488.42 536.22 1489.29 513.99"/><path class="cls-36" d="M1548.88,639.52l16.39-9.33a16.27,16.27,0,0,1,16.07,0l16.38,9.33a15.79,15.79,0,0,1,8,13.72V671.9a15.79,15.79,0,0,1-8,13.72L1581.33,695a16.25,16.25,0,0,1-16.06,0l-16.39-9.33a15.8,15.8,0,0,1-8-13.72V653.24A15.8,15.8,0,0,1,1548.88,639.52Z" transform="translate(-135.55 -148.55)"/><path class="cls-40" d="M1573.3,653.06v19c0,12.2-13.38,19.82-24.09,13.72l-.33-.18a15.8,15.8,0,0,1-8-13.72V653.24a15.8,15.8,0,0,1,8-13.72l.33-.18C1559.91,633.24,1573.3,640.86,1573.3,653.06Z" transform="translate(-135.55 -148.55)"/><path class="cls-38" d="M1585.09,686.62l-10.32,9-.59-15.26a.73.73,0,0,0-.73-.68.72.72,0,0,0-.72.68l-.6,15.27-9.74-8.38a.72.72,0,0,0-1,0,.71.71,0,0,0-.05,1l10.6,11.94L1570.51,737a.71.71,0,0,0,.2.52.77.77,0,0,0,.53.22h4.45a.72.72,0,0,0,.72-.71,1.23,1.23,0,0,0,0-.2l-1.45-36.63,11.16-12.52a.7.7,0,0,0,0-1A.74.74,0,0,0,1585.09,686.62Z" transform="translate(-135.55 -148.55)"/><polygon class="cls-39" points="1437.9 531.78 1437.9 588.44 1435.69 588.44 1437.13 551.32 1437.11 551.33 1426.36 539.18 1437.24 548.55 1437.9 531.78"/><path class="cls-36" d="M1488.85,608.21l26.52-15.09a17,17,0,0,1,16.77,0l26.53,15.09a16.53,16.53,0,0,1,8.39,14.33v30.21a16.49,16.49,0,0,1-8.39,14.32l-26.53,15.11a17,17,0,0,1-16.77,0l-26.52-15.11a16.49,16.49,0,0,1-8.39-14.32V622.54A16.52,16.52,0,0,1,1488.85,608.21Z" transform="translate(-135.55 -148.55)"/><path class="cls-41" d="M1523.75,617V658.3c0,12.73-14,20.7-25.15,14.33l-9.75-5.56a16.49,16.49,0,0,1-8.39-14.32V622.54a16.52,16.52,0,0,1,8.39-14.33l9.75-5.55C1509.78,596.3,1523.75,604.26,1523.75,617Z" transform="translate(-135.55 -148.55)"/><path class="cls-38" d="M1538,677.06l-12.52,10.85-.73-18.49a.72.72,0,0,0-.73-.67.71.71,0,0,0-.71.67l-.72,18.5-11.84-10.18a.73.73,0,0,0-1,0,.69.69,0,0,0,0,1L1522.35,693,1520.64,737a.72.72,0,0,0,.19.52.75.75,0,0,0,.52.21h5.31a.71.71,0,0,0,.73-.71,1.48,1.48,0,0,0,0-.19L1525.65,693l13.34-15a.7.7,0,0,0,0-1A.73.73,0,0,0,1538,677.06Z" transform="translate(-135.55 -148.55)"/><polygon class="cls-39" points="1388.44 521.61 1388.44 589.15 1385.8 589.15 1387.53 544.89 1387.52 544.91 1374.7 530.43 1387.66 541.59 1388.44 521.61"/><path class="cls-36" d="M233.33,598l33-18.78a12.79,12.79,0,0,1,12.7,0L312,598a12.53,12.53,0,0,1,6.35,10.85v37.55A12.56,12.56,0,0,1,312,657.29l-33,18.78a12.84,12.84,0,0,1-12.7,0l-33-18.78A12.54,12.54,0,0,1,227,646.43V608.88A12.53,12.53,0,0,1,233.33,598Z" transform="translate(-135.55 -148.55)"/><path class="cls-42" d="M272.65,597.34V658a12.68,12.68,0,0,1-19,10.84l-20.28-11.53A12.54,12.54,0,0,1,227,646.43V608.87A12.51,12.51,0,0,1,233.33,598l20.28-11.55A12.69,12.69,0,0,1,272.65,597.34Z" transform="translate(-135.55 -148.55)"/><path class="cls-38" d="M288,666.92l-13.31,11.51L274,658.75a1,1,0,0,0-2.09,0l-.77,19.71-12.54-10.8a1.07,1.07,0,0,0-1.44.05,1,1,0,0,0,0,1.41l13.77,15.56-1.88,48a1.1,1.1,0,0,0,.29.76,1.12,1.12,0,0,0,.75.31h5.81a1,1,0,0,0,1-1,1.05,1.05,0,0,0,0-.31L275,684.68l14.54-16.32a1,1,0,0,0-.05-1.39A1,1,0,0,0,288,666.92Z" transform="translate(-135.55 -148.55)"/><polygon class="cls-39" points="137.35 511.27 137.35 585.16 134.46 585.16 136.35 536.73 136.34 536.77 122.31 520.92 136.5 533.13 137.35 511.27"/><path class="cls-36" d="M350.8,619.9l28.58-16.28a10.46,10.46,0,0,1,10.36,0l28.58,16.28a10.19,10.19,0,0,1,5.18,8.85v32.54a10.2,10.2,0,0,1-5.18,8.85l-28.58,16.28a10.51,10.51,0,0,1-10.36,0L350.8,670.14a10.16,10.16,0,0,1-5.18-8.85V628.75A10.15,10.15,0,0,1,350.8,619.9Z" transform="translate(-135.55 -148.55)"/><path class="cls-43" d="M384.56,618.36v53.31A10.37,10.37,0,0,1,369,680.53L350.8,670.14a10.16,10.16,0,0,1-5.18-8.85V628.75a10.15,10.15,0,0,1,5.18-8.85L369,609.52A10.36,10.36,0,0,1,384.56,618.36Z" transform="translate(-135.55 -148.55)"/><path class="cls-38" d="M399.73,670.1l-13.55,11.74-.78-20a.69.69,0,0,0-.69-.66.68.68,0,0,0-.68.66l-.78,20-12.81-11a.69.69,0,0,0-.94,0,.67.67,0,0,0,0,.92l13.57,15.34L381.2,734.2a.68.68,0,0,0,.19.49.7.7,0,0,0,.5.2h5.68a.68.68,0,0,0,.69-.67,1.08,1.08,0,0,0,0-.19l-1.85-46.9,14.31-16.07a.67.67,0,0,0,0-.92A.69.69,0,0,0,399.73,670.1Z" transform="translate(-135.55 -148.55)"/><polygon class="cls-39" points="249.16 514.02 249.16 586.34 246.34 586.34 248.19 538.95 248.16 538.98 234.44 523.47 248.33 535.42 249.16 514.02"/><rect class="cls-44" x="1220.83" y="543.17" width="172.1" height="4.44"/><rect class="cls-22" x="1220.83" y="547.61" width="172.1" height="2.01"/><rect class="cls-44" x="1220.83" y="557.07" width="172.1" height="4.44"/><rect class="cls-22" x="1220.83" y="561.51" width="172.1" height="2.01"/><rect class="cls-44" x="1220.83" y="570.97" width="172.1" height="4.44"/><rect class="cls-22" x="1220.83" y="575.41" width="172.1" height="2.01"/><path class="cls-44" d="M1357.61,688.76c-2.1,0-3.81,1.17-3.81,2.62v44h7.63v-44C1361.43,689.93,1359.72,688.76,1357.61,688.76Z" transform="translate(-135.55 -148.55)"/><path class="cls-22" d="M1361.43,691.38v44h-3.82V688.76C1359.72,688.76,1361.43,689.93,1361.43,691.38Z" transform="translate(-135.55 -148.55)"/><path class="cls-44" d="M1529,688.76c-2.11,0-3.82,1.17-3.82,2.62v44h7.65v-44C1532.87,689.93,1531.15,688.76,1529,688.76Z" transform="translate(-135.55 -148.55)"/><path class="cls-22" d="M1532.87,691.38v44H1529V688.76C1531.15,688.76,1532.87,689.93,1532.87,691.38Z" transform="translate(-135.55 -148.55)"/><path class="cls-44" d="M1443.33,688.76c-2.11,0-3.83,1.17-3.83,2.62v44h7.65v-44C1447.15,689.93,1445.44,688.76,1443.33,688.76Z" transform="translate(-135.55 -148.55)"/><path class="cls-22" d="M1447.15,691.38v44h-3.82V688.76C1445.44,688.76,1447.15,689.93,1447.15,691.38Z" transform="translate(-135.55 -148.55)"/><rect class="cls-44" x="1038.93" y="543.17" width="172.1" height="4.44"/><rect class="cls-22" x="1038.93" y="547.61" width="172.1" height="2.01"/><rect class="cls-44" x="1038.93" y="557.07" width="172.1" height="4.44"/><rect class="cls-22" x="1038.93" y="561.51" width="172.1" height="2.01"/><rect class="cls-44" x="1038.93" y="570.97" width="172.1" height="4.44"/><rect class="cls-22" x="1038.93" y="575.41" width="172.1" height="2.01"/><path class="cls-44" d="M1175.71,688.76c-2.1,0-3.81,1.17-3.81,2.62v44h7.64v-44C1179.54,689.93,1177.83,688.76,1175.71,688.76Z" transform="translate(-135.55 -148.55)"/><path class="cls-22" d="M1179.54,691.38v44h-3.83V688.76C1177.82,688.76,1179.54,689.93,1179.54,691.38Z" transform="translate(-135.55 -148.55)"/><path class="cls-44" d="M1347.15,688.76c-2.11,0-3.83,1.17-3.83,2.62v44H1351v-44C1351,689.93,1349.26,688.76,1347.15,688.76Z" transform="translate(-135.55 -148.55)"/><path class="cls-22" d="M1351,691.38v44h-3.82V688.76C1349.26,688.76,1351,689.93,1351,691.38Z" transform="translate(-135.55 -148.55)"/><path class="cls-44" d="M1261.43,688.76c-2.11,0-3.82,1.17-3.82,2.62v44h7.64v-44C1265.25,689.93,1263.54,688.76,1261.43,688.76Z" transform="translate(-135.55 -148.55)"/><path class="cls-22" d="M1265.25,691.38v44h-3.82V688.76C1263.54,688.76,1265.25,689.93,1265.25,691.38Z" transform="translate(-135.55 -148.55)"/><rect class="cls-44" x="857.14" y="543.17" width="172.1" height="4.44"/><rect class="cls-22" x="857.14" y="547.61" width="172.1" height="2.01"/><rect class="cls-44" x="857.14" y="557.07" width="172.1" height="4.44"/><rect class="cls-22" x="857.14" y="561.51" width="172.1" height="2.01"/><rect class="cls-44" x="857.14" y="570.97" width="172.1" height="4.44"/><rect class="cls-22" x="857.14" y="575.41" width="172.1" height="2.01"/><path class="cls-44" d="M993.93,688.76c-2.12,0-3.83,1.17-3.83,2.62v44h7.65v-44C997.75,689.93,996,688.76,993.93,688.76Z" transform="translate(-135.55 -148.55)"/><path class="cls-22" d="M997.75,691.38v44h-3.82V688.76C996,688.76,997.75,689.93,997.75,691.38Z" transform="translate(-135.55 -148.55)"/><path class="cls-44" d="M1165.35,688.76c-2.11,0-3.82,1.17-3.82,2.62v44h7.64v-44C1169.17,689.93,1167.46,688.76,1165.35,688.76Z" transform="translate(-135.55 -148.55)"/><path class="cls-22" d="M1169.17,691.38v44h-3.82V688.76C1167.46,688.76,1169.17,689.93,1169.17,691.38Z" transform="translate(-135.55 -148.55)"/><path class="cls-44" d="M1079.64,688.76c-2.11,0-3.82,1.17-3.82,2.62v44h7.64v-44C1083.46,689.93,1081.74,688.76,1079.64,688.76Z" transform="translate(-135.55 -148.55)"/><path class="cls-22" d="M1083.46,691.38v44h-3.82V688.76C1081.74,688.76,1083.46,689.93,1083.46,691.38Z" transform="translate(-135.55 -148.55)"/><rect class="cls-44" x="1402.59" y="543.17" width="172.1" height="4.44"/><rect class="cls-22" x="1402.59" y="547.61" width="172.1" height="2.01"/><rect class="cls-44" x="1402.59" y="557.07" width="172.1" height="4.44"/><rect class="cls-22" x="1402.59" y="561.51" width="172.1" height="2.01"/><rect class="cls-44" x="1402.59" y="570.97" width="172.1" height="4.44"/><rect class="cls-22" x="1402.59" y="575.41" width="172.1" height="2.01"/><path class="cls-44" d="M1539.37,688.76c-2.1,0-3.82,1.17-3.82,2.62v44h7.64v-44C1543.19,689.93,1541.48,688.76,1539.37,688.76Z" transform="translate(-135.55 -148.55)"/><path class="cls-22" d="M1543.19,691.38v44h-3.82V688.76C1541.48,688.76,1543.19,689.93,1543.19,691.38Z" transform="translate(-135.55 -148.55)"/><path class="cls-44" d="M1710.8,688.76c-2.11,0-3.82,1.17-3.82,2.62v44h7.64v-44C1714.62,689.93,1712.91,688.76,1710.8,688.76Z" transform="translate(-135.55 -148.55)"/><path class="cls-22" d="M1714.62,691.38v44h-3.82V688.76C1712.91,688.76,1714.62,689.93,1714.62,691.38Z" transform="translate(-135.55 -148.55)"/><path class="cls-44" d="M1625.08,688.76c-2.11,0-3.82,1.17-3.82,2.62v44h7.65v-44C1628.91,689.93,1627.19,688.76,1625.08,688.76Z" transform="translate(-135.55 -148.55)"/><path class="cls-22" d="M1628.91,691.38v44h-3.83V688.76C1627.19,688.76,1628.91,689.93,1628.91,691.38Z" transform="translate(-135.55 -148.55)"/><rect class="cls-44" x="614.37" y="546.63" width="169.86" height="4.44"/><rect class="cls-22" x="614.37" y="551.07" width="169.86" height="2.01"/><rect class="cls-44" x="614.37" y="560.53" width="169.86" height="4.44"/><rect class="cls-22" x="614.37" y="564.97" width="169.86" height="2.01"/><rect class="cls-44" x="614.37" y="574.43" width="169.86" height="4.44"/><rect class="cls-22" x="614.37" y="578.87" width="169.86" height="2.01"/><path class="cls-44" d="M751.14,692.22c-2.08,0-3.77,1.17-3.77,2.62v44h7.54v-44C754.91,693.39,753.22,692.22,751.14,692.22Z" transform="translate(-135.55 -148.55)"/><path class="cls-22" d="M754.91,694.84v44h-3.77V692.22C753.22,692.22,754.91,693.39,754.91,694.84Z" transform="translate(-135.55 -148.55)"/><path class="cls-44" d="M920.33,692.22c-2.08,0-3.77,1.17-3.77,2.62v44h7.55v-44C924.11,693.39,922.42,692.22,920.33,692.22Z" transform="translate(-135.55 -148.55)"/><path class="cls-22" d="M924.11,694.84v44h-3.78V692.22C922.41,692.22,924.11,693.39,924.11,694.84Z" transform="translate(-135.55 -148.55)"/><path class="cls-44" d="M835.74,692.22c-2.08,0-3.78,1.17-3.78,2.62v44h7.55v-44C839.51,693.39,837.82,692.22,835.74,692.22Z" transform="translate(-135.55 -148.55)"/><path class="cls-22" d="M839.51,694.84v44h-3.77V692.22C837.82,692.22,839.51,693.39,839.51,694.84Z" transform="translate(-135.55 -148.55)"/><rect class="cls-44" x="434.98" y="546.63" width="169.86" height="4.44"/><rect class="cls-22" x="434.98" y="551.07" width="169.86" height="2.01"/><rect class="cls-44" x="434.98" y="560.53" width="169.86" height="4.44"/><rect class="cls-22" x="434.98" y="564.97" width="169.86" height="2.01"/><rect class="cls-44" x="434.98" y="574.43" width="169.86" height="4.44"/><rect class="cls-22" x="434.98" y="578.87" width="169.86" height="2.01"/><path class="cls-44" d="M571.74,692.22c-2.08,0-3.76,1.17-3.76,2.62v44h7.54v-44C575.52,693.39,573.83,692.22,571.74,692.22Z" transform="translate(-135.55 -148.55)"/><path class="cls-22" d="M575.52,694.84v44h-3.78V692.22C573.83,692.22,575.52,693.39,575.52,694.84Z" transform="translate(-135.55 -148.55)"/><path class="cls-44" d="M740.94,692.22c-2.08,0-3.77,1.17-3.77,2.62v44h7.54v-44C744.71,693.39,743,692.22,740.94,692.22Z" transform="translate(-135.55 -148.55)"/><path class="cls-22" d="M744.71,694.84v44h-3.77V692.22C743,692.22,744.71,693.39,744.71,694.84Z" transform="translate(-135.55 -148.55)"/><path class="cls-44" d="M656.34,692.22c-2.08,0-3.76,1.17-3.76,2.62v44h7.53v-44C660.11,693.39,658.43,692.22,656.34,692.22Z" transform="translate(-135.55 -148.55)"/><path class="cls-22" d="M660.11,694.84v44h-3.77V692.22C658.43,692.22,660.11,693.39,660.11,694.84Z" transform="translate(-135.55 -148.55)"/><rect class="cls-44" x="255.45" y="546.63" width="169.86" height="4.44"/><rect class="cls-22" x="255.45" y="551.07" width="169.86" height="2.01"/><rect class="cls-44" x="255.45" y="560.53" width="169.86" height="4.44"/><rect class="cls-22" x="255.45" y="564.97" width="169.86" height="2.01"/><rect class="cls-44" x="255.45" y="574.43" width="169.86" height="4.44"/><rect class="cls-22" x="255.45" y="578.87" width="169.86" height="2.01"/><path class="cls-44" d="M392.22,692.22c-2.08,0-3.77,1.17-3.77,2.62v44H396v-44C396,693.39,394.3,692.22,392.22,692.22Z" transform="translate(-135.55 -148.55)"/><path class="cls-22" d="M396,694.84v44h-3.77V692.22C394.3,692.22,396,693.39,396,694.84Z" transform="translate(-135.55 -148.55)"/><path class="cls-44" d="M561.41,692.22c-2.08,0-3.77,1.17-3.77,2.62v44h7.54v-44C565.18,693.39,563.49,692.22,561.41,692.22Z" transform="translate(-135.55 -148.55)"/><path class="cls-22" d="M565.18,694.84v44h-3.77V692.22C563.49,692.22,565.18,693.39,565.18,694.84Z" transform="translate(-135.55 -148.55)"/><path class="cls-44" d="M476.81,692.22c-2.08,0-3.77,1.17-3.77,2.62v44h7.55v-44C480.59,693.39,478.9,692.22,476.81,692.22Z" transform="translate(-135.55 -148.55)"/><path class="cls-22" d="M480.59,694.84v44h-3.78V692.22C478.89,692.22,480.59,693.39,480.59,694.84Z" transform="translate(-135.55 -148.55)"/><rect class="cls-44" x="76.02" y="546.63" width="169.86" height="4.44"/><rect class="cls-22" x="76.02" y="551.07" width="169.86" height="2.01"/><rect class="cls-44" x="76.02" y="560.53" width="169.86" height="4.44"/><rect class="cls-22" x="76.02" y="564.97" width="169.86" height="2.01"/><rect class="cls-44" x="76.02" y="574.43" width="169.86" height="4.44"/><rect class="cls-22" x="76.02" y="578.87" width="169.86" height="2.01"/><path class="cls-44" d="M212.79,692.22c-2.08,0-3.77,1.17-3.77,2.62v44h7.54v-44C216.56,693.39,214.88,692.22,212.79,692.22Z" transform="translate(-135.55 -148.55)"/><path class="cls-22" d="M216.56,694.84v44h-3.77V692.22C214.88,692.22,216.56,693.39,216.56,694.84Z" transform="translate(-135.55 -148.55)"/><path class="cls-44" d="M382,692.22c-2.09,0-3.77,1.17-3.77,2.62v44h7.54v-44C385.76,693.39,384.07,692.22,382,692.22Z" transform="translate(-135.55 -148.55)"/><path class="cls-22" d="M385.76,694.84v44H382V692.22C384.07,692.22,385.76,693.39,385.76,694.84Z" transform="translate(-135.55 -148.55)"/><path class="cls-44" d="M297.39,692.22c-2.09,0-3.77,1.17-3.77,2.62v44h7.54v-44C301.16,693.39,299.47,692.22,297.39,692.22Z" transform="translate(-135.55 -148.55)"/><path class="cls-22" d="M301.16,694.84v44h-3.77V692.22C299.47,692.22,301.16,693.39,301.16,694.84Z" transform="translate(-135.55 -148.55)"/><path class="cls-13" d="M1688.42,736.64H237.47c-34.1,0-62.51,8-68.8,18.48,20.14-.89,42.15.15,57.76,3.16l12.91,2.49c24.06,4.63,63.44,4.63,87.5,0l12.9-2.49c24.06-4.64,63.44-4.64,87.5,0l12.91,2.49c24.06,4.63,63.44,4.63,87.51,0l12.9-2.49c24.06-4.64,63.44-4.64,87.51,0l12.9,2.49c24.07,4.63,63.45,4.63,87.51,0l12.89-2.49c24.08-4.64,63.45-4.64,87.52,0l12.9,2.49c24.07,4.63,63.45,4.63,87.5,0l12.92-2.49c24.06-4.64,63.43-4.64,87.5,0l12.9,2.49c24.06,4.63,63.45,4.63,87.51,0l12.9-2.49c24.07-4.64,63.44-4.64,87.5,0l12.91,2.49c24.06,4.63,63.45,4.63,87.5,0l12.9-2.49c24.08-4.64,63.45-4.64,87.52,0l12.91,2.49c24,4.63,63.44,4.63,87.49,0l12.91-2.49c24.06-4.64,63.44-4.64,87.51,0l12.9,2.49c24.06,4.63,63.45,4.63,87.51,0l12.9-2.49c3.77-.73,8-1.33,12.36-1.83-4.6-11.18-33.9-19.81-69.42-19.81" transform="translate(-135.55 -148.55)"/><path class="cls-13" d="M948.79,901.63H427.18c-1.08,0-2-1.21-2-2.69s.88-2.68,2-2.68H948.79c1.08,0,2,1.2,2,2.68s-.88,2.69-2,2.69" transform="translate(-135.55 -148.55)"/><path class="cls-13" d="M1380,968.91H936.51c-1.08,0-2-1.2-2-2.69s.87-2.68,2-2.68H1380c1.08,0,2,1.2,2,2.68s-.88,2.69-2,2.69" transform="translate(-135.55 -148.55)"/><path class="cls-13" d="M1278.12,901.63h-178c-1.08,0-2-1.21-2-2.69s.88-2.68,2-2.68h178c1.08,0,2,1.2,2,2.68s-.88,2.69-2,2.69" transform="translate(-135.55 -148.55)"/><path class="cls-13" d="M850.27,968.91H746.89c-1.08,0-1.95-1.2-1.95-2.69s.87-2.68,1.95-2.68H850.27c1.09,0,2,1.2,2,2.68s-.87,2.69-2,2.69" transform="translate(-135.55 -148.55)"/><path class="cls-13" d="M1178.91,1040.39H865.33c-1.08,0-2-1.2-2-2.68s.87-2.68,2-2.68h313.58c1.08,0,2,1.19,2,2.68s-.88,2.68-2,2.68" transform="translate(-135.55 -148.55)"/><path class="cls-13" d="M828.61,1020.46H385.11c-1.08,0-2-1.2-2-2.68s.88-2.68,2-2.68h443.5c1.08,0,2,1.19,2,2.68s-.88,2.68-2,2.68" transform="translate(-135.55 -148.55)"/><path class="cls-13" d="M809.85,815.93H288.24c-1.09,0-2-1.2-2-2.68s.87-2.69,2-2.69H809.85c1.08,0,2,1.21,2,2.69s-.88,2.68-2,2.68" transform="translate(-135.55 -148.55)"/><path class="cls-13" d="M711.33,860.15H608c-1.08,0-2-1.2-2-2.68s.88-2.68,2-2.68H711.33c1.08,0,2,1.19,2,2.68s-.88,2.68-2,2.68" transform="translate(-135.55 -148.55)"/><polygon class="cls-45" points="819.17 569.28 815.83 563.49 819.05 563.49 809.99 510.05 800.93 563.49 804.14 563.49 800.8 569.28 819.17 569.28"/><path class="cls-45" d="M955.87,718.49H935.21l3.34-5.78H935.7l9.84-58.05,9.84,58.05h-2.85Zm-18.37-1.32h16.08l-3.34-5.79h3.58l-8.28-48.82-8.28,48.82h3.58Z" transform="translate(-135.55 -148.55)"/><path class="cls-45" d="M945.54,736a.66.66,0,0,1-.66-.66V699.59a.66.66,0,0,1,1.32,0v35.76a.65.65,0,0,1-.66.66" transform="translate(-135.55 -148.55)"/><polygon class="cls-45" points="843.23 569.79 839.88 564.01 843.11 564.01 834.04 510.57 824.98 564.01 828.2 564.01 824.86 569.79 843.23 569.79"/><path class="cls-45" d="M979.92,719H959.27l3.34-5.78h-2.86l9.84-58.05,9.85,58.05h-2.86Zm-18.36-1.32h16.07l-3.33-5.78h3.57l-8.28-48.83-8.28,48.83h3.58Z" transform="translate(-135.55 -148.55)"/><path class="cls-45" d="M969.59,736.53a.67.67,0,0,1-.66-.66V700.11a.67.67,0,0,1,1.33,0v35.76a.67.67,0,0,1-.67.66" transform="translate(-135.55 -148.55)"/></svg>