<?xml version="1.0" standalone="no"?><!DOCTYPE svg PUBLIC "-//W3C//DTD SVG 1.1//EN" "http://www.w3.org/Graphics/SVG/1.1/DTD/svg11.dtd"><svg t="1663038020890" class="icon" viewBox="0 0 1024 1024" version="1.1" xmlns="http://www.w3.org/2000/svg" p-id="2362" xmlns:xlink="http://www.w3.org/1999/xlink" width="80" height="80"><path d="M512 1015.17084445A503.17084445 503.17084445 0 1 0 8.82915555 512 502.9888 502.9888 0 0 0 512 1015.17084445z m0-35.13457778a456.38542222 456.38542222 0 0 1-156.01208889-24.94008889V636.70044445l312.02417778 314.75484444A405.04888889 405.04888889 0 0 1 512 980.03626667z m324.58524445-136.16924445a455.11111111 455.11111111 0 0 1-127.43111112 92.47857778L483.78311111 711.15662222l443.09617778 2.18453333a409.05386667 409.05386667 0 0 1-90.112 130.52586667z m134.53084444-329.13635555a455.11111111 455.11111111 0 0 1-24.94008889 155.83004444H627.78026667l314.93688888-311.66008889a403.95662222 403.95662222 0 0 1 28.58097778 155.83004445z m-264.87466667-418.70222222a404.6848 404.6848 0 0 1 130.34382223 89.92995555 458.38791111 458.38791111 0 0 1 92.66062222 127.43111111L704.23893333 538.76053333zM512 673.10933333A161.10933333 161.10933333 0 1 1 673.10933333 512 161.10933333 161.10933333 0 0 1 512 673.10933333z m0-623.86631111A455.11111111 455.11111111 0 0 1 668.01208889 75.09333333v318.57777778L356.16995555 77.824A405.41297778 405.41297778 0 0 1 512 49.24302222z m-324.58524445 136.35128889a461.30062222 461.30062222 0 0 1 127.43111112-92.66062222l225.73511111 225.37102222-443.09617778-2.36657778a404.6848 404.6848 0 0 1 89.92995555-130.34382222zM53.06595555 514.73066667a455.11111111 455.11111111 0 0 1 24.9400889-155.83004445h318.39573333L81.46488889 670.56071111a407.23342222 407.23342222 0 0 1-28.39893334-155.83004444z m267.0592-24.02986667l-2.18453333 443.09617778a406.3232 406.3232 0 0 1-130.52586667-89.92995556 457.1136 457.1136 0 0 1-92.47857777-127.43111111z" fill="#FFFFFF" p-id="2363"></path><path d="M668.01208889 75.09333333A455.11111111 455.11111111 0 0 0 512 49.24302222a405.41297778 405.41297778 0 0 0-156.01208889 28.58097778l311.84213334 314.93688889z" fill="#FC6B4F" p-id="2364"></path><path d="M836.76728889 185.59431111a404.6848 404.6848 0 0 0-130.34382222-89.92995556l-2.18453334 443.09617778 225.18897778-225.37102222a458.38791111 458.38791111 0 0 0-92.66062222-127.7952z" fill="#7838F2" p-id="2365"></path><path d="M946.35804445 670.56071111a455.11111111 455.11111111 0 0 0 24.94008888-155.83004444 403.95662222 403.95662222 0 0 0-28.58097778-155.83004445l-314.93688888 311.66008889z" fill="#5698F3" p-id="2366"></path><path d="M708.97208889 936.3456a455.11111111 455.11111111 0 0 0 127.43111111-92.47857778 409.05386667 409.05386667 0 0 0 90.112-130.52586667l-443.09617778-2.18453333z" fill="#20E9F4" p-id="2367"></path><path d="M356.16995555 955.09617778A456.38542222 456.38542222 0 0 0 512 980.03626667a405.04888889 405.04888889 0 0 0 155.83004445-28.58097778L356.16995555 636.70044445z" fill="#00FD60" p-id="2368"></path><path d="M317.94062222 933.79697778l2.18453333-443.09617778L94.93617778 715.88977778a457.1136 457.1136 0 0 0 92.47857777 127.43111111 406.3232 406.3232 0 0 0 130.52586667 90.47608889z" fill="#ABFB5B" p-id="2369"></path><path d="M78.00604445 358.90062222a455.11111111 455.11111111 0 0 0-24.9400889 155.83004445 407.23342222 407.23342222 0 0 0 28.39893334 155.83004444l314.93688889-311.66008889z" fill="#F0E254" p-id="2370"></path><path d="M315.20995555 93.29777778a461.30062222 461.30062222 0 0 0-127.4311111 92.66062222 404.6848 404.6848 0 0 0-89.92995556 130.34382222l443.09617778 2.36657778z" fill="#F6B351" p-id="2371"></path></svg>