<?xml version="1.0" standalone="no"?><!DOCTYPE svg PUBLIC "-//W3C//DTD SVG 1.1//EN" "http://www.w3.org/Graphics/SVG/1.1/DTD/svg11.dtd"><svg t="1663038466042" class="icon" viewBox="0 0 1024 1024" version="1.1" xmlns="http://www.w3.org/2000/svg" p-id="2362" xmlns:xlink="http://www.w3.org/1999/xlink" width="80" height="80"><path d="M515.32049067 507.281408m-512.92842667 0a512.92842667 512.92842667 0 1 0 1025.85685333 0 512.92842667 512.92842667 0 1 0-1025.85685333 0Z" fill="#59ADF8" p-id="2363"></path><path d="M305.31401955 740.29829689l-51.08895288-93.20675556c-11.47608178 13.86450489-22.13660445 28.311552-34.48649956 41.18573512-16.95197867 17.59277511-27.96202667 13.98101333-34.77777066-9.78670934-12.00036978-41.76827733-2.56318578-80.97336889 17.0684871-117.61527466 13.34021689-24.81629867 29.70965333-48.29275022 46.8946489-70.66237156 8.388608-10.95179378 12.46640355-20.56374045 11.88386133-34.48649956-1.16508445-27.20472178 0.17476267-54.11817245 22.83565511-74.973184 4.48557511-4.07779555 3.96128711-14.33053867 4.54382933-21.78707911 4.77684622-63.61361067 21.67057067-123.03291733 70.77888-166.84009244 64.95345778-57.96295111 141.033472-75.67223467 225.09431467-50.91419023 82.02194489 24.17550222 132.120576 79.51701333 152.567808 162.17975467 1.98064355 8.09733689 3.08747378 16.48594489 4.60208356 24.69979023 4.48557511 24.52502755 3.72827022 48.99180089 20.91326577 71.827456 10.77703111 14.33053867 6.815744 39.43810845 10.66052267 59.5358151 1.74762667 9.37892978 4.07779555 19.98119822 9.78670933 27.02995912 31.10775467 37.86524445 58.42898489 78.06065778 66.52632178 127.05245866 3.670016 22.13660445 0.87381333 46.02083555-2.79620267 68.44871112-3.32049067 20.21421511-16.60245333 23.01041778-31.45728 7.80606577-12.87418311-13.22370845-24.00073955-28.19504355-35.94285511-42.52558222-17.12674133 31.22426311-34.07872 62.09900089-51.20546133 93.26500978 10.36925155 7.45654045 22.07835022 14.33053867 31.981568 23.30168889 35.18555022 31.74855111 27.262976 80.85686045-17.65102934 95.12914488-72.81777778 23.18518045-143.18887822 18.75785955-208.142336-27.5542471-8.03908267-5.70891378-27.49599289-4.77684622-36.175872 1.16508444-67.51664355 46.19559822-139.69362489 50.56466489-213.79299555 23.53470578-37.51571911-13.68974222-42.991616-60.46788267-13.45672533-89.47848534 10.07798045-9.961472 22.544384-17.18499555 34.83602488-26.33090844z" fill="#FFFFFF" p-id="2364"></path></svg>