<?xml version="1.0" standalone="no"?><!DOCTYPE svg PUBLIC "-//W3C//DTD SVG 1.1//EN" "http://www.w3.org/Graphics/SVG/1.1/DTD/svg11.dtd"><svg class="icon" width="80px" height="80.00px" viewBox="0 0 1024 1024" version="1.1" xmlns="http://www.w3.org/2000/svg"><path d="M661.9648 940.3392H214.784c-67.0208 0-121.344-54.3232-121.344-121.344V215.2448c0-67.0208 54.3232-121.344 121.344-121.344h447.1808c67.0208 0 121.344 54.3232 121.344 121.344v603.7504c0 67.0208-54.3232 121.344-121.344 121.344z" fill="#FFAC3E" /><path d="M644.1984 301.2608H220.3648c-22.6304 0-40.96-18.3296-40.96-40.96s18.3296-40.96 40.96-40.96h423.7824c22.6304 0 40.96 18.3296 40.96 40.96s-18.3296 40.96-40.9088 40.96zM446.7712 455.4752H220.3648c-22.6304 0-40.96-18.3296-40.96-40.96s18.3296-40.96 40.96-40.96h226.4064c22.6304 0 40.96 18.3296 40.96 40.96s-18.3296 40.96-40.96 40.96zM366.0288 617.216H220.3648c-22.6304 0-40.96-18.3296-40.96-40.96s18.3296-40.96 40.96-40.96h145.664c22.6304 0 40.96 18.3296 40.96 40.96s-18.3296 40.96-40.96 40.96z" fill="#FFFFFF" /><path d="M917.7088 810.4448l-156.4672 120.7808a61.77792 61.77792 0 0 1-75.4688 0l-156.4672-120.7808a61.70112 61.70112 0 0 1-24.0128-48.896v-228.6592c0-19.6608 12.5952-37.0688 31.2832-43.1616l172.8-56.6784a45.3632 45.3632 0 0 1 28.3136 0l172.8 56.6784c18.688 6.144 31.2832 23.552 31.2832 43.1616v228.6592c0 19.0976-8.9088 37.1712-24.064 48.896z" fill="#FFAC3E" /><path d="M783.3088 818.9952V447.9488l-45.6704-15.0016a45.3632 45.3632 0 0 0-28.3136 0l-172.8 56.6784a45.44 45.44 0 0 0-31.2832 43.1616v228.6592c0 19.1488 8.8576 37.2224 24.0128 48.896l156.4672 120.7808c2.4576 1.8944 5.0176 3.5328 7.68 5.0176 51.7632-13.7728 89.9072-61.0304 89.9072-117.1456z" fill="#FF7C0E" /><path d="M710.144 769.9456a38.3488 38.3488 0 0 1-27.6992-11.8272l-67.3792-70.1952c-14.6944-15.3088-14.1824-39.6288 1.1264-54.272 15.3088-14.6944 39.6288-14.1824 54.272 1.1264l38.4 40.0384L788.48 584.192a38.3488 38.3488 0 0 1 54.1696-3.4816 38.3488 38.3488 0 0 1 3.4816 54.1696l-107.2128 122.0096a38.47168 38.47168 0 0 1-28.0064 13.056h-0.768z" fill="#FFFFFF" /></svg>